<svg width="30" height="24" viewBox="0 0 30 24" fill="none" xmlns="http://www.w3.org/2000/svg">
<path opacity="0.8" d="M18.4385 23.3067C18.5542 23.4301 18.7116 23.5 18.8761 23.501C19.041 23.5026 19.1994 23.4324 19.3137 23.3067L29.6335 12.3969C29.7506 12.2747 29.8165 12.1082 29.8165 11.9342C29.8165 11.7603 29.7506 11.5938 29.6335 11.4716L19.3137 0.559735C19.1991 0.43016 19.0396 0.355287 18.8718 0.352383C18.7039 0.349478 18.5422 0.418544 18.4235 0.544083C18.3049 0.669466 18.2394 0.840511 18.2423 1.01786C18.245 1.1952 18.3159 1.36383 18.4384 1.48503L28.3206 11.9342L18.4384 22.381C18.3218 22.5034 18.2563 22.67 18.2563 22.8438C18.2563 23.0174 18.3218 23.1839 18.4384 23.3064L18.4385 23.3067Z" fill="#A7901D"/>
<g opacity="0.5">
<path opacity="0.8" d="M11.8277 20.4449C11.9161 20.5392 12.0364 20.5926 12.1621 20.5934C12.2881 20.5946 12.4091 20.541 12.4965 20.4449L20.3819 12.1086C20.4714 12.0153 20.5218 11.888 20.5218 11.7551C20.5218 11.6222 20.4714 11.495 20.3819 11.4016L12.4965 3.06378C12.4089 2.96477 12.287 2.90756 12.1588 2.90534C12.0305 2.90312 11.907 2.9559 11.8163 3.05182C11.7256 3.14763 11.6756 3.27832 11.6778 3.41384C11.6799 3.54935 11.734 3.67819 11.8277 3.77081L19.3787 11.7551L11.8277 19.7376C11.7386 19.8312 11.6885 19.9584 11.6885 20.0912C11.6885 20.2239 11.7386 20.3511 11.8277 20.4447L11.8277 20.4449Z" fill="#A7901D"/>
</g>
<g opacity="0.2">
<path d="M5.62845 18.7548C5.69787 18.8289 5.7923 18.8708 5.89103 18.8714C5.98994 18.8723 6.085 18.8302 6.1536 18.7548L12.3455 12.2089C12.4157 12.1356 12.4553 12.0357 12.4553 11.9313C12.4553 11.827 12.4157 11.7271 12.3455 11.6538L6.1536 5.10664C6.08482 5.0289 5.98911 4.98397 5.88845 4.98223C5.7877 4.98049 5.69071 5.02193 5.61945 5.09725C5.54829 5.17248 5.509 5.27511 5.51074 5.38152C5.51239 5.48792 5.55488 5.5891 5.62842 5.66182L11.5577 11.9313L5.62842 18.1994C5.55845 18.2729 5.51916 18.3728 5.51916 18.4771C5.51916 18.5812 5.55845 18.6812 5.62842 18.7546L5.62845 18.7548Z" fill="#A7901D"/>
<path opacity="0.65" d="M0.959465 16.4789C1.00575 16.5282 1.0687 16.5562 1.13451 16.5566C1.20046 16.5572 1.26383 16.5291 1.30956 16.4789L5.43748 12.1149C5.48431 12.0661 5.51069 11.9995 5.51069 11.9299C5.51069 11.8603 5.48431 11.7937 5.43748 11.7448L1.30956 7.3801C1.26371 7.32827 1.1999 7.29832 1.13279 7.29715C1.06563 7.29599 1.00097 7.32362 0.953463 7.37383C0.906021 7.42399 0.879828 7.49241 0.880988 7.56335C0.882087 7.63428 0.910417 7.70173 0.959446 7.75021L4.9123 11.9299L0.959446 16.1086C0.912798 16.1576 0.886604 16.2242 0.886604 16.2937C0.886604 16.3632 0.912798 16.4298 0.959446 16.4788L0.959465 16.4789Z" fill="#A7901D"/>
</g>
</svg>
