<svg width="46" height="46" viewBox="0 0 46 46" fill="none" xmlns="http://www.w3.org/2000/svg">
<path d="M23 0.616599C35.362 0.616601 45.3834 10.638 45.3834 23C45.3834 35.362 35.362 45.3833 23 45.3833C10.638 45.3833 0.616668 35.362 0.616669 23C0.616671 10.638 10.638 0.616598 23 0.616599Z" fill="#CAB9A5" stroke="#DBD2C7" stroke-width="1.23333"/>
<path d="M23.3994 18.0275C23.7419 18.0304 24.0701 18.1696 24.3143 18.4158L30.6439 24.8971C30.892 25.1501 31.0318 25.4935 31.0326 25.852C31.0333 26.2105 30.895 26.5546 30.6481 26.8086C30.401 27.0627 30.0657 27.2058 29.7156 27.2066C29.3654 27.2073 29.0294 27.0657 28.7814 26.8129L23.3833 21.2854L17.9853 26.8129L17.9851 26.8129C17.651 27.1535 17.1646 27.2857 16.7095 27.1597C16.2542 27.0337 15.8991 26.6686 15.7781 26.202C15.657 25.7352 15.7884 25.2379 16.1226 24.8971L22.4522 18.4158C22.7044 18.1613 23.0461 18.0213 23.4 18.0275L23.3994 18.0275Z" fill="#8A7354"/>
</svg>
