<svg width="29" height="22" viewBox="0 0 29 22" fill="none" xmlns="http://www.w3.org/2000/svg">
<path opacity="0.8" d="M10.2068 21.421C10.103 21.5317 9.96181 21.5944 9.8142 21.5953C9.66631 21.5967 9.52417 21.5337 9.42161 21.421L0.163779 11.6339C0.0587492 11.5243 -0.000407219 11.3749 -0.000407219 11.2188C-0.000407219 11.0628 0.0587492 10.9134 0.163779 10.8038L9.42161 1.01483C9.52445 0.898588 9.66755 0.83142 9.81806 0.828814C9.96869 0.826209 10.1137 0.888167 10.2202 1.00079C10.3266 1.11327 10.3854 1.26671 10.3828 1.42581C10.3803 1.5849 10.3168 1.73618 10.2068 1.8449L1.34162 11.2188L10.2068 20.5905C10.3114 20.7004 10.3702 20.8498 10.3702 21.0057C10.3702 21.1615 10.3114 21.3109 10.2068 21.4207L10.2068 21.421Z" fill="white"/>
<g opacity="0.5">
<path opacity="0.8" d="M17.1436 19.7028C17.0555 19.7968 16.9356 19.85 16.8103 19.8508C16.6847 19.852 16.564 19.7985 16.477 19.7028L8.61698 11.3934C8.52781 11.3004 8.47758 11.1736 8.47758 11.0411C8.47758 10.9086 8.52781 10.7818 8.61698 10.6887L16.477 2.37778C16.5643 2.27909 16.6858 2.22207 16.8136 2.21985C16.9414 2.21764 17.0646 2.27025 17.155 2.36586C17.2454 2.46136 17.2952 2.59163 17.293 2.72671C17.2909 2.86178 17.237 2.99021 17.1436 3.08253L9.61698 11.0411L17.1436 18.9978C17.2325 19.091 17.2823 19.2179 17.2823 19.3502C17.2823 19.4825 17.2325 19.6093 17.1436 19.7026L17.1436 19.7028Z" fill="white"/>
</g>
<g opacity="0.2">
<path d="M24.1102 18.0181C24.041 18.0919 23.9469 18.1337 23.8485 18.1343C23.7499 18.1352 23.6551 18.0933 23.5868 18.0181L17.4149 11.4933C17.3449 11.4203 17.3054 11.3207 17.3054 11.2166C17.3054 11.1126 17.3449 11.013 17.4149 10.94L23.5868 4.41398C23.6553 4.33649 23.7507 4.29171 23.8511 4.28997C23.9515 4.28823 24.0482 4.32954 24.1192 4.40462C24.1901 4.47961 24.2293 4.5819 24.2275 4.68797C24.2259 4.79403 24.1835 4.89488 24.1102 4.96736L18.2001 11.2167L24.1102 17.4645C24.18 17.5377 24.2191 17.6373 24.2191 17.7412C24.2191 17.8451 24.18 17.9447 24.1102 18.0179L24.1102 18.0181Z" fill="white"/>
<path opacity="0.5" d="M28.7646 15.7495C28.7184 15.7987 28.6557 15.8266 28.5901 15.827C28.5244 15.8276 28.4612 15.7996 28.4156 15.7495L24.301 11.3997C24.2543 11.351 24.228 11.2846 24.228 11.2152C24.228 11.1459 24.2543 11.0795 24.301 11.0308L28.4156 6.68012C28.4613 6.62846 28.5249 6.59861 28.5918 6.59745C28.6588 6.59629 28.7232 6.62383 28.7706 6.67388C28.8178 6.72387 28.844 6.79207 28.8428 6.86278C28.8417 6.93349 28.8135 7.00072 28.7646 7.04904L24.8245 11.2152L28.7646 15.3804C28.8111 15.4293 28.8372 15.4957 28.8372 15.565C28.8372 15.6342 28.8111 15.7006 28.7646 15.7494L28.7646 15.7495Z" fill="white"/>
</g>
</svg>
