<svg width="29" height="24" viewBox="0 0 29 24" fill="none" xmlns="http://www.w3.org/2000/svg">
<path opacity="0.8" d="M17.5005 23.5553C17.6158 23.6783 17.7727 23.748 17.9367 23.7489C18.101 23.7505 18.2589 23.6806 18.3729 23.5553L28.6594 12.6807C28.7761 12.5589 28.8418 12.3929 28.8418 12.2195C28.8418 12.0462 28.7761 11.8802 28.6594 11.7584L18.3729 0.881759C18.2586 0.752602 18.0996 0.67797 17.9324 0.675076C17.765 0.67218 17.6039 0.741023 17.4855 0.866157C17.3673 0.991135 17.302 1.16163 17.3049 1.33841C17.3076 1.51517 17.3782 1.68325 17.5004 1.80406L27.3506 12.2195L17.5004 22.6326C17.3842 22.7546 17.3189 22.9206 17.3189 23.0938C17.3189 23.2669 17.3842 23.4329 17.5004 23.555L17.5005 23.5553Z" fill="white"/>
<g opacity="0.5">
<path opacity="0.8" d="M10.9105 20.7026C10.9986 20.7966 11.1185 20.8499 11.2438 20.8506C11.3694 20.8518 11.49 20.7984 11.5771 20.7026L19.4371 12.3933C19.5263 12.3002 19.5765 12.1734 19.5765 12.0409C19.5765 11.9084 19.5263 11.7816 19.4371 11.6885L11.5771 3.3776C11.4898 3.27891 11.3683 3.22188 11.2405 3.21967C11.1126 3.21746 10.9895 3.27006 10.8991 3.36568C10.8087 3.46118 10.7588 3.59145 10.7611 3.72653C10.7631 3.8616 10.8171 3.99003 10.9104 4.08234L18.4371 12.0409L10.9104 19.9976C10.8216 20.0909 10.7718 20.2177 10.7718 20.3501C10.7718 20.4823 10.8216 20.6091 10.9104 20.7024L10.9105 20.7026Z" fill="white"/>
</g>
<g opacity="0.2">
<path d="M4.73287 19.0181C4.80207 19.092 4.89619 19.1338 4.99459 19.1343C5.09319 19.1353 5.18795 19.0933 5.25632 19.0181L11.4282 12.4934C11.4982 12.4203 11.5377 12.3207 11.5377 12.2167C11.5377 12.1127 11.4982 12.0131 11.4282 11.94L5.25632 5.41404C5.18776 5.33655 5.09236 5.29177 4.99202 5.29003C4.8916 5.28829 4.79493 5.3296 4.7239 5.40468C4.65296 5.47967 4.6138 5.58196 4.61553 5.68803C4.61718 5.79409 4.65954 5.89494 4.73284 5.96742L10.643 12.2167L4.73284 18.4645C4.66309 18.5378 4.62393 18.6374 4.62393 18.7413C4.62393 18.8451 4.66309 18.9447 4.73284 19.018L4.73287 19.0181Z" fill="white"/>
<path opacity="0.65" d="M0.078627 16.7496C0.124759 16.7989 0.187507 16.8267 0.25311 16.8271C0.31884 16.8278 0.382012 16.7998 0.427594 16.7496L4.54219 12.3998C4.58887 12.3511 4.61516 12.2847 4.61516 12.2154C4.61516 12.146 4.58887 12.0796 4.54219 12.0309L0.427594 7.68024C0.381887 7.62858 0.318289 7.59873 0.251397 7.59757C0.18445 7.59641 0.119999 7.62395 0.0726441 7.674C0.0253549 7.72399 -0.000753022 7.79219 0.000403034 7.8629C0.00149853 7.93361 0.0297376 8.00084 0.0786082 8.04917L4.0187 12.2154L0.0786082 16.3806C0.0321104 16.4294 0.006001 16.4958 0.006001 16.5651C0.006001 16.6343 0.0321104 16.7007 0.0786082 16.7495L0.078627 16.7496Z" fill="white"/>
</g>
</svg>
