<svg width="10" height="8" viewBox="0 0 10 8" fill="none" xmlns="http://www.w3.org/2000/svg">
<path d="M9.5633 0.0612768C9.11205 -0.158776 8.60874 0.265612 8.31369 0.5171C7.63684 1.11439 7.0641 1.80598 6.42191 2.4347C5.71032 3.1263 5.0508 3.81789 4.32186 4.49379C3.90532 4.87103 3.45407 5.27969 3.17638 5.75124C2.55157 5.20108 2.01354 4.60379 1.31931 4.11656C0.815989 3.77076 -0.0170889 3.51927 0.000266917 4.35233C0.0349785 5.4369 1.09368 6.60004 1.87469 7.33876C2.20445 7.65312 2.63835 7.9832 3.14166 7.99892C3.74912 8.03035 4.37392 7.37019 4.7384 7.00868C5.38059 6.37996 5.90126 5.67262 6.49133 5.02821C7.25498 4.17943 8.03599 3.34635 8.78229 2.48186C9.2509 1.94744 10.7261 0.627101 9.5633 0.0612768ZM0.763893 4.28946C0.746537 4.28946 0.729181 4.28946 0.69447 4.30515C0.625047 4.28946 0.572979 4.27371 0.503556 4.24228C0.555624 4.21084 0.642403 4.22656 0.763893 4.28946Z" fill="white"/>
</svg>
