<svg width="135" height="45" viewBox="0 0 135 45" fill="none" xmlns="http://www.w3.org/2000/svg">
<path d="M33.3295 16.2121H17.7231V20.843H28.7913C28.2447 27.3371 22.8418 30.1065 17.7419 30.1065C11.2171 30.1065 5.52352 24.9726 5.52352 17.7773C5.52352 10.7677 10.9511 5.3694 17.7563 5.3694C23.0066 5.3694 26.1005 8.71645 26.1005 8.71645L29.3429 5.35862C29.3429 5.35862 25.1811 0.725231 17.5905 0.725231C7.92479 0.725231 0.447266 8.88297 0.447266 17.6946C0.447266 26.3288 7.48108 34.748 17.8369 34.748C26.9449 34.748 33.612 28.5088 33.612 19.2824C33.612 17.3358 33.3293 16.2109 33.3293 16.2109L33.3295 16.2121Z" fill="#5B7AC6"/>
<path d="M46.1772 17.1531C49.3262 17.1531 52.3104 19.6991 52.3104 23.8017C52.3104 27.8171 49.339 30.4356 46.1628 30.4356C42.6728 30.4356 39.9194 27.6404 39.9194 23.7697C39.9194 19.982 42.6386 17.1531 46.1772 17.1531ZM46.1135 12.8581C39.7098 12.8581 35.1206 17.8643 35.1206 23.7032C35.1206 29.6286 39.5718 34.728 46.1888 34.728C52.1787 34.728 57.0861 30.1496 57.0861 23.8306C57.0861 16.5879 51.3778 12.8581 46.1135 12.8581Z" fill="#DD2634"/>
<path d="M70.0853 17.1531C73.2344 17.1531 76.2184 19.6991 76.2184 23.8017C76.2184 27.8171 73.2469 30.4356 70.0707 30.4356C66.5808 30.4356 63.8276 27.6404 63.8276 23.7697C63.8276 19.982 66.5464 17.1531 70.0853 17.1531ZM70.0217 12.8581C63.6176 12.8581 59.0283 17.8643 59.0283 23.7032C59.0283 29.6286 63.4801 34.728 70.0967 34.728C76.0866 34.728 80.9943 30.1496 80.9943 23.8306C80.9943 16.5879 75.2858 12.8581 70.0217 12.8581Z" fill="#F0BF0B"/>
<path d="M93.8977 17.1562C96.7796 17.1562 99.7385 19.6168 99.7385 23.8192C99.7385 28.0904 96.7858 30.4443 93.8341 30.4443C90.7006 30.4443 87.7849 27.8999 87.7849 23.8596C87.7849 19.6614 90.8126 17.1562 93.8977 17.1562ZM93.472 12.8696C87.5942 12.8696 82.9741 18.0177 82.9741 23.7959C82.9741 30.3779 88.3304 34.7426 93.3709 34.7426C96.4873 34.7426 98.1447 33.5054 99.3681 32.0855V34.2417C99.3681 38.0144 97.0776 40.2736 93.62 40.2736C90.2796 40.2736 88.6045 37.7901 88.0219 36.3807L83.8198 38.1375C85.3105 41.29 88.3116 44.5776 93.6549 44.5776C99.4989 44.5776 103.953 40.8966 103.953 33.1766V13.5272H99.3681V15.3795C97.9587 13.8604 96.0308 12.8698 93.472 12.8698V12.8696Z" fill="#5B7AC6"/>
<path d="M124.529 17.0492C126.527 17.0492 127.964 18.1114 128.575 19.3849L118.783 23.4777C118.361 20.3092 121.363 17.0492 124.529 17.0492ZM124.338 12.8436C118.793 12.8436 114.138 17.2549 114.138 23.7641C114.138 30.6518 119.327 34.7368 124.87 34.7368C129.497 34.7368 132.336 32.2057 134.031 29.9377L130.251 27.4227C129.27 28.945 127.63 30.4327 124.893 30.4327C121.819 30.4327 120.406 28.7494 119.53 27.1189L134.193 21.0347L133.432 19.2518C132.015 15.7602 128.711 12.8442 124.338 12.8442L124.338 12.8436Z" fill="#DD2634"/>
<path d="M107.148 34.0874H111.964V1.85587H107.148V34.0874Z" fill="#47BC48"/>
</svg>
