<svg width="92" height="92" viewBox="0 0 92 92" fill="none" xmlns="http://www.w3.org/2000/svg">
<path d="M0 0L92 26.2507V92H0V0Z" fill="#FFBE28"/>
<path fill-rule="evenodd" clip-rule="evenodd" d="M14.4812 21.771H18.9618V14.1916L9.99323 11.6223V8.42749H7.02283V21.771H11.5034V17.5699H14.4812V21.771Z" fill="white"/>
<path d="M21.0252 51.2155V54.4877H6.73671V51.6954L13.4936 44.3512C14.1727 43.5852 14.7083 42.9114 15.1004 42.3297C15.4925 41.7383 15.7746 41.2099 15.9468 40.7445C16.1285 40.2694 16.2194 39.8186 16.2194 39.392C16.2194 38.7521 16.1142 38.2043 15.9037 37.7486C15.6933 37.2832 15.3825 36.9245 14.9713 36.6724C14.5696 36.4203 14.0723 36.2943 13.4793 36.2943C12.8481 36.2943 12.3029 36.4494 11.8439 36.7597C11.3943 37.0699 11.05 37.5014 10.8109 38.054C10.5814 38.6067 10.4666 39.232 10.4666 39.9301H6.32068C6.32068 38.6697 6.61716 37.5159 7.21013 36.4688C7.80309 35.412 8.63993 34.5734 9.72066 33.9529C10.8014 33.3227 12.083 33.0076 13.5654 33.0076C15.0286 33.0076 16.2624 33.25 17.2666 33.7347C18.2804 34.2098 19.0455 34.8982 19.562 35.7998C20.088 36.6918 20.351 37.7583 20.351 38.9993C20.351 39.6974 20.241 40.3809 20.021 41.0499C19.8011 41.7092 19.4854 42.3685 19.0742 43.0278C18.6725 43.6773 18.1847 44.3366 17.6109 45.0056C17.0371 45.6746 16.4011 46.3678 15.7029 47.0853L12.0734 51.2155H21.0252Z" fill="#222222"/>
<path d="M37.6665 42.0388V45.7037C37.6665 47.2937 37.4991 48.6656 37.1644 49.8194C36.8297 50.9634 36.3467 51.9039 35.7155 52.6407C35.0938 53.3679 34.3526 53.906 33.4918 54.255C32.6311 54.604 31.6747 54.7786 30.6227 54.7786C29.781 54.7786 28.9968 54.6719 28.2699 54.4586C27.5431 54.2356 26.8879 53.8914 26.3045 53.4261C25.7307 52.9607 25.2334 52.3741 24.8126 51.6663C24.4013 50.9489 24.0857 50.0957 23.8657 49.1068C23.6458 48.1178 23.5358 46.9835 23.5358 45.7037V42.0388C23.5358 40.4488 23.7031 39.0866 24.0379 37.9522C24.3822 36.8082 24.8652 35.8726 25.4868 35.1454C26.118 34.4182 26.864 33.885 27.7248 33.5457C28.5855 33.1966 29.5419 33.0221 30.594 33.0221C31.4356 33.0221 32.215 33.1336 32.9323 33.3566C33.6592 33.5699 34.3143 33.9044 34.8977 34.3601C35.4811 34.8158 35.9785 35.4023 36.3897 36.1198C36.801 36.8276 37.1166 37.6759 37.3365 38.6648C37.5565 39.6441 37.6665 40.7687 37.6665 42.0388ZM33.5205 46.2563V41.4716C33.5205 40.7057 33.4775 40.0367 33.3914 39.4647C33.3149 38.8927 33.1954 38.4079 33.0328 38.0104C32.8702 37.6032 32.6693 37.2735 32.4302 37.0215C32.1911 36.7694 31.9186 36.5852 31.6125 36.4688C31.3065 36.3525 30.967 36.2943 30.594 36.2943C30.1253 36.2943 29.7093 36.3864 29.3459 36.5706C28.992 36.7548 28.6907 37.0505 28.4421 37.4578C28.1934 37.8553 28.0021 38.3885 27.8682 39.0575C27.7439 39.7168 27.6817 40.5215 27.6817 41.4716V46.2563C27.6817 47.0223 27.72 47.6961 27.7965 48.2778C27.8826 48.8595 28.0069 49.3588 28.1695 49.7757C28.3417 50.1829 28.5425 50.5174 28.772 50.7792C29.0111 51.0313 29.2837 51.2155 29.5897 51.3319C29.9054 51.4482 30.2497 51.5064 30.6227 51.5064C31.0817 51.5064 31.4882 51.4143 31.8421 51.23C32.2055 51.0361 32.5115 50.7356 32.7602 50.3284C33.0184 49.9115 33.2097 49.3685 33.334 48.6996C33.4584 48.0306 33.5205 47.2162 33.5205 46.2563Z" fill="#222222"/>
<path d="M54.7668 51.2155V54.4877H40.4783V51.6954L47.2352 44.3512C47.9143 43.5852 48.4498 42.9114 48.842 42.3297C49.2341 41.7383 49.5162 41.2099 49.6884 40.7445C49.8701 40.2694 49.9609 39.8186 49.9609 39.392C49.9609 38.7521 49.8557 38.2043 49.6453 37.7486C49.4349 37.2832 49.1241 36.9245 48.7128 36.6724C48.3112 36.4203 47.8138 36.2943 47.2209 36.2943C46.5897 36.2943 46.0445 36.4494 45.5854 36.7597C45.1359 37.0699 44.7916 37.5014 44.5525 38.054C44.323 38.6067 44.2082 39.232 44.2082 39.9301H40.0623C40.0623 38.6697 40.3587 37.5159 40.9517 36.4688C41.5447 35.412 42.3815 34.5734 43.4622 33.9529C44.543 33.3227 45.8245 33.0076 47.3069 33.0076C48.7702 33.0076 50.004 33.25 51.0082 33.7347C52.022 34.2098 52.7871 34.8982 53.3035 35.7998C53.8296 36.6918 54.0926 37.7583 54.0926 38.9993C54.0926 39.6974 53.9826 40.3809 53.7626 41.0499C53.5426 41.7092 53.227 42.3685 52.8158 43.0278C52.4141 43.6773 51.9263 44.3366 51.3525 45.0056C50.7787 45.6746 50.1427 46.3678 49.4445 47.0853L45.815 51.2155H54.7668Z" fill="#222222"/>
<path d="M67.4199 33.2693V54.4877H63.2883V38.0976L58.3246 39.6974V36.3961L66.9752 33.2693H67.4199Z" fill="#222222"/>
<path d="M10.3363 65.4412H7.9562L7.94347 64.1517H9.94174C10.2939 64.1517 10.5824 64.1079 10.8072 64.0202C11.0321 63.9284 11.1997 63.797 11.31 63.6259C11.4245 63.4506 11.4818 63.2378 11.4818 62.9874C11.4818 62.7036 11.4267 62.4741 11.3163 62.2988C11.2103 62.1235 11.0427 61.9962 10.8136 61.9169C10.5887 61.8376 10.2981 61.798 9.94174 61.798H8.61805V69.4412H6.70888V60.3269H9.94174C10.4806 60.3269 10.9621 60.377 11.3863 60.4772C11.8148 60.5773 12.1776 60.7297 12.4746 60.9341C12.7716 61.1386 12.9985 61.3974 13.1555 61.7104C13.3125 62.0192 13.391 62.3864 13.391 62.8121C13.391 63.1877 13.304 63.534 13.1301 63.8512C12.9604 64.1684 12.6909 64.4271 12.3218 64.6274C11.957 64.8277 11.4797 64.9383 10.89 64.9592L10.3363 65.4412ZM10.2536 69.4412H7.43436L8.17894 67.9764H10.2536C10.5887 67.9764 10.8624 67.9243 11.0745 67.8199C11.2866 67.7114 11.4436 67.5654 11.5454 67.3817C11.6473 67.1981 11.6982 66.9874 11.6982 66.7495C11.6982 66.4824 11.6515 66.2508 11.5582 66.0547C11.4691 65.8585 11.3248 65.7083 11.1254 65.604C10.926 65.4955 10.663 65.4412 10.3363 65.4412H8.49713L8.50986 64.1517H10.8009L11.24 64.6587C11.8042 64.6504 12.2582 64.7485 12.6019 64.9529C12.9497 65.1533 13.2022 65.4141 13.3592 65.7354C13.5204 66.0568 13.601 66.401 13.601 66.7683C13.601 67.3525 13.4716 67.845 13.2128 68.2456C12.954 68.6421 12.5743 68.9404 12.0736 69.1407C11.5773 69.3411 10.9706 69.4412 10.2536 69.4412Z" fill="#222222"/>
<path d="M17.6965 69.5664C17.162 69.5664 16.6826 69.483 16.2583 69.316C15.834 69.1449 15.4734 68.9091 15.1764 68.6087C14.8837 68.3082 14.6588 67.9597 14.5019 67.5633C14.3449 67.1627 14.2664 66.737 14.2664 66.2863V66.0359C14.2664 65.5226 14.3406 65.0531 14.4891 64.6274C14.6376 64.2018 14.8498 63.8324 15.1255 63.5194C15.4055 63.2065 15.7449 62.9665 16.1437 62.7996C16.5425 62.6285 16.9923 62.5429 17.4929 62.5429C17.9808 62.5429 18.4135 62.6222 18.7911 62.7808C19.1687 62.9394 19.4848 63.1647 19.7394 63.4568C19.9981 63.749 20.1933 64.0995 20.3248 64.5085C20.4564 64.9133 20.5221 65.364 20.5221 65.8606V66.6118H15.0492V65.4099H18.7211V65.2722C18.7211 65.0218 18.6745 64.7985 18.5811 64.6024C18.492 64.4021 18.3563 64.2435 18.1738 64.1266C17.9914 64.0098 17.7581 63.9514 17.4738 63.9514C17.232 63.9514 17.0241 64.0035 16.8501 64.1079C16.6762 64.2122 16.5341 64.3583 16.4238 64.5461C16.3177 64.7338 16.2371 64.955 16.1819 65.2096C16.131 65.46 16.1056 65.7354 16.1056 66.0359V66.2863C16.1056 66.5575 16.1437 66.8079 16.2201 67.0375C16.3007 67.267 16.4131 67.4652 16.5574 67.6321C16.7059 67.7991 16.8841 67.9284 17.092 68.0202C17.3041 68.1121 17.5438 68.158 17.8111 68.158C18.142 68.158 18.4496 68.0954 18.7339 67.9702C19.0224 67.8408 19.2705 67.6467 19.4784 67.388L20.3694 68.3395C20.2251 68.544 20.0278 68.7401 19.7775 68.9279C19.5315 69.1157 19.2345 69.2701 18.8866 69.3911C18.5387 69.508 18.142 69.5664 17.6965 69.5664Z" fill="#222222"/>
<path d="M24.8977 67.5695C24.8977 67.4402 24.8595 67.3233 24.7831 67.219C24.7068 67.1147 24.5646 67.0187 24.3567 66.931C24.1531 66.8392 23.8582 66.7558 23.4722 66.6806C23.1243 66.6055 22.7997 66.5116 22.4985 66.399C22.2015 66.2821 21.9427 66.1423 21.7221 65.9795C21.5057 65.8168 21.336 65.6248 21.213 65.4036C21.0899 65.1783 21.0284 64.9216 21.0284 64.6337C21.0284 64.3499 21.0899 64.0828 21.213 63.8324C21.3403 63.582 21.5206 63.3609 21.7539 63.1689C21.9915 62.9728 22.28 62.8204 22.6194 62.7119C22.963 62.5993 23.3491 62.5429 23.7776 62.5429C24.3758 62.5429 24.8892 62.6368 25.3177 62.8246C25.7504 63.0124 26.0814 63.2711 26.3105 63.6008C26.5438 63.9263 26.6605 64.2977 26.6605 64.7151H24.8277C24.8277 64.5398 24.7895 64.3833 24.7131 64.2456C24.641 64.1037 24.5264 63.9931 24.3695 63.9138C24.2167 63.8303 24.0173 63.7886 23.7713 63.7886C23.5676 63.7886 23.3916 63.8241 23.2431 63.895C23.0946 63.9618 22.98 64.0536 22.8994 64.1705C22.823 64.2831 22.7849 64.4083 22.7849 64.5461C22.7849 64.6504 22.8061 64.7443 22.8485 64.8277C22.8952 64.907 22.9694 64.9801 23.0712 65.0468C23.1731 65.1136 23.3046 65.1762 23.4658 65.2346C23.6313 65.2889 23.8349 65.339 24.0767 65.3849C24.5731 65.485 25.0165 65.6165 25.4068 65.7792C25.7971 65.9378 26.1068 66.1548 26.3359 66.4303C26.565 66.7015 26.6796 67.0583 26.6796 67.5007C26.6796 67.8012 26.6117 68.0766 26.4759 68.327C26.3402 68.5774 26.145 68.7965 25.8904 68.9843C25.6359 69.1679 25.3304 69.3119 24.974 69.4162C24.6219 69.5163 24.2252 69.5664 23.784 69.5664C23.1434 69.5664 22.6003 69.4537 22.1548 69.2284C21.7136 69.003 21.3784 68.7172 21.1493 68.3708C20.9245 68.0202 20.812 67.6613 20.812 67.2941H22.5494C22.5579 67.5403 22.6215 67.7386 22.7403 67.8888C22.8633 68.039 23.0182 68.1475 23.2049 68.2143C23.3958 68.2811 23.6016 68.3145 23.8222 68.3145C24.0598 68.3145 24.257 68.2832 24.414 68.2206C24.571 68.1538 24.6898 68.0661 24.7704 67.9576C24.8552 67.845 24.8977 67.7156 24.8977 67.5695Z" fill="#222222"/>
<path d="M30.8515 62.6681V63.9451H26.8422V62.6681H30.8515ZM27.835 60.9967H29.6678V67.4005C29.6678 67.5967 29.6933 67.7469 29.7442 67.8512C29.7993 67.9556 29.8799 68.0286 29.986 68.0703C30.0921 68.1079 30.2257 68.1267 30.3869 68.1267C30.5015 68.1267 30.6033 68.1225 30.6924 68.1141C30.7857 68.1016 30.8642 68.0891 30.9279 68.0766L30.9342 69.4037C30.7772 69.4537 30.6075 69.4934 30.4251 69.5226C30.2427 69.5518 30.0412 69.5664 29.8205 69.5664C29.4175 69.5664 29.0654 69.5017 28.7641 69.3724C28.4671 69.2388 28.238 69.026 28.0768 68.7339C27.9156 68.4417 27.835 68.0578 27.835 67.5821V60.9967Z" fill="#222222"/>
<path d="M34.066 66.1235V65.9921C34.066 65.4955 34.1381 65.0385 34.2824 64.6212C34.4266 64.1997 34.6367 63.8345 34.9124 63.5257C35.1882 63.2169 35.5276 62.9769 35.9306 62.8058C36.3337 62.6306 36.7961 62.5429 37.318 62.5429C37.8398 62.5429 38.3044 62.6306 38.7117 62.8058C39.119 62.9769 39.4605 63.2169 39.7363 63.5257C40.0163 63.8345 40.2284 64.1997 40.3727 64.6212C40.5169 65.0385 40.589 65.4955 40.589 65.9921V66.1235C40.589 66.616 40.5169 67.0729 40.3727 67.4944C40.2284 67.9117 40.0163 68.2769 39.7363 68.5899C39.4605 68.8987 39.1211 69.1387 38.718 69.3098C38.315 69.4809 37.8525 69.5664 37.3307 69.5664C36.8089 69.5664 36.3443 69.4809 35.937 69.3098C35.534 69.1387 35.1924 68.8987 34.9124 68.5899C34.6367 68.2769 34.4266 67.9117 34.2824 67.4944C34.1381 67.0729 34.066 66.616 34.066 66.1235ZM35.8988 65.9921V66.1235C35.8988 66.4073 35.9243 66.6723 35.9752 66.9185C36.0261 67.1647 36.1067 67.3817 36.217 67.5695C36.3316 67.7532 36.4801 67.8971 36.6625 68.0015C36.8449 68.1058 37.0677 68.158 37.3307 68.158C37.5853 68.158 37.8038 68.1058 37.9862 68.0015C38.1686 67.8971 38.315 67.7532 38.4253 67.5695C38.5356 67.3817 38.6162 67.1647 38.6671 66.9185C38.7223 66.6723 38.7499 66.4073 38.7499 66.1235V65.9921C38.7499 65.7166 38.7223 65.4579 38.6671 65.2159C38.6162 64.9696 38.5335 64.7526 38.4189 64.5648C38.3086 64.3729 38.1623 64.2226 37.9798 64.1141C37.7974 64.0056 37.5768 63.9514 37.318 63.9514C37.0592 63.9514 36.8386 64.0056 36.6561 64.1141C36.4779 64.2226 36.3316 64.3729 36.217 64.5648C36.1067 64.7526 36.0261 64.9696 35.9752 65.2159C35.9243 65.4579 35.8988 65.7166 35.8988 65.9921Z" fill="#222222"/>
<path d="M43.66 69.4412H41.8145V62.0672C41.8145 61.5539 41.9163 61.1219 42.1199 60.7714C42.3278 60.4167 42.6184 60.1496 42.9918 59.9701C43.3694 59.7865 43.817 59.6947 44.3346 59.6947C44.5043 59.6947 44.6676 59.7072 44.8246 59.7323C44.9816 59.7531 45.1343 59.7803 45.2828 59.8136L45.2637 61.172C45.1831 61.1512 45.0982 61.1365 45.0091 61.1282C44.92 61.1199 44.8161 61.1157 44.6973 61.1157C44.4767 61.1157 44.2879 61.1532 44.1309 61.2284C43.9782 61.2993 43.8615 61.4057 43.7809 61.5476C43.7003 61.6895 43.66 61.8627 43.66 62.0672V69.4412ZM45.0346 62.6681V63.9451H40.7899V62.6681H45.0346Z" fill="#222222"/>
<path d="M54.753 64.039V65.5038H49.9165V64.039H54.753ZM50.4829 60.3269V69.4412H48.5737V60.3269H50.4829ZM56.1149 60.3269V69.4412H54.2121V60.3269H56.1149Z" fill="#222222"/>
<path d="M56.9776 66.1235V65.9921C56.9776 65.4955 57.0497 65.0385 57.194 64.6212C57.3382 64.1997 57.5482 63.8345 57.824 63.5257C58.0998 63.2169 58.4392 62.9769 58.8422 62.8058C59.2453 62.6306 59.7077 62.5429 60.2296 62.5429C60.7514 62.5429 61.216 62.6306 61.6233 62.8058C62.0305 62.9769 62.3721 63.2169 62.6478 63.5257C62.9279 63.8345 63.14 64.1997 63.2842 64.6212C63.4285 65.0385 63.5006 65.4955 63.5006 65.9921V66.1235C63.5006 66.616 63.4285 67.0729 63.2842 67.4944C63.14 67.9117 62.9279 68.2769 62.6478 68.5899C62.3721 68.8987 62.0327 69.1387 61.6296 69.3098C61.2266 69.4809 60.7641 69.5664 60.2423 69.5664C59.7204 69.5664 59.2559 69.4809 58.8486 69.3098C58.4455 69.1387 58.104 68.8987 57.824 68.5899C57.5482 68.2769 57.3382 67.9117 57.194 67.4944C57.0497 67.0729 56.9776 66.616 56.9776 66.1235ZM58.8104 65.9921V66.1235C58.8104 66.4073 58.8359 66.6723 58.8868 66.9185C58.9377 67.1647 59.0183 67.3817 59.1286 67.5695C59.2432 67.7532 59.3916 67.8971 59.5741 68.0015C59.7565 68.1058 59.9792 68.158 60.2423 68.158C60.4968 68.158 60.7153 68.1058 60.8978 68.0015C61.0802 67.8971 61.2266 67.7532 61.3369 67.5695C61.4472 67.3817 61.5278 67.1647 61.5787 66.9185C61.6339 66.6723 61.6614 66.4073 61.6614 66.1235V65.9921C61.6614 65.7166 61.6339 65.4579 61.5787 65.2159C61.5278 64.9696 61.4451 64.7526 61.3305 64.5648C61.2202 64.3729 61.0738 64.2226 60.8914 64.1141C60.709 64.0056 60.4884 63.9514 60.2296 63.9514C59.9708 63.9514 59.7501 64.0056 59.5677 64.1141C59.3895 64.2226 59.2432 64.3729 59.1286 64.5648C59.0183 64.7526 58.9377 64.9696 58.8868 65.2159C58.8359 65.4579 58.8104 65.7166 58.8104 65.9921Z" fill="#222222"/>
<path d="M68.3089 67.8199V62.6681H70.1417V69.4412H68.4171L68.3089 67.8199ZM68.5126 66.4303L69.0535 66.4177C69.0535 66.8684 69.0005 67.2878 68.8944 67.676C68.7883 68.0599 68.6292 68.3937 68.4171 68.6775C68.205 68.9571 67.9377 69.1762 67.6152 69.3348C67.2928 69.4892 66.9131 69.5664 66.4761 69.5664C66.1409 69.5664 65.8312 69.5205 65.547 69.4287C65.267 69.3327 65.0251 69.1846 64.8215 68.9843C64.6221 68.7798 64.4651 68.5189 64.3506 68.2018C64.2403 67.8804 64.1851 67.4944 64.1851 67.0437V62.6681H66.0179V67.0562C66.0179 67.2565 66.0412 67.4256 66.0879 67.5633C66.1388 67.701 66.2088 67.8137 66.2979 67.9013C66.387 67.9889 66.491 68.0515 66.6098 68.0891C66.7328 68.1267 66.8686 68.1454 67.017 68.1454C67.3946 68.1454 67.6916 68.0703 67.908 67.9201C68.1286 67.7699 68.2835 67.5654 68.3726 67.3066C68.4659 67.0437 68.5126 66.7516 68.5126 66.4303Z" fill="#222222"/>
<path d="M76.6301 68.0328V69.4412H71.399V68.0328H76.6301ZM76.5283 63.7072L72.1372 69.4412H70.909V68.3708L75.281 62.6681H76.5283V63.7072ZM75.8792 62.6681V64.0828H71.0108V62.6681H75.8792Z" fill="#222222"/>
<path d="M82.8703 68.0328V69.4412H77.6392V68.0328H82.8703ZM82.7685 63.7072L78.3774 69.4412H77.1491V68.3708L81.5211 62.6681H82.7685V63.7072ZM82.1194 62.6681V64.0828H77.251V62.6681H82.1194Z" fill="#222222"/>
<path d="M11.5327 80.3601C11.5327 80.1973 11.5073 80.0513 11.4563 79.9219C11.4097 79.7884 11.3206 79.6673 11.1891 79.5588C11.0575 79.4462 10.873 79.3356 10.6354 79.2271C10.3978 79.1186 10.0902 79.0059 9.71264 78.889C9.29262 78.7555 8.89382 78.6053 8.51623 78.4383C8.14288 78.2714 7.81195 78.0774 7.52346 77.8562C7.2392 77.6308 7.01434 77.37 6.84888 77.0737C6.68766 76.7774 6.60705 76.4331 6.60705 76.0408C6.60705 75.6611 6.69191 75.3168 6.86161 75.008C7.03131 74.695 7.2689 74.4279 7.57437 74.2067C7.87984 73.9814 8.24046 73.8082 8.65623 73.6871C9.07625 73.5661 9.53657 73.5056 10.0372 73.5056C10.7203 73.5056 11.3163 73.6266 11.8255 73.8687C12.3346 74.1107 12.7291 74.4425 13.0091 74.864C13.2934 75.2855 13.4355 75.7675 13.4355 76.31H11.5391C11.5391 76.0429 11.4818 75.8092 11.3673 75.6089C11.2569 75.4044 11.0872 75.2437 10.8581 75.1269C10.6333 75.01 10.349 74.9516 10.0054 74.9516C9.67446 74.9516 9.39869 75.0017 9.17807 75.1019C8.95746 75.1978 8.79199 75.3293 8.68169 75.4962C8.57138 75.659 8.51623 75.8426 8.51623 76.0471C8.51623 76.2015 8.55441 76.3413 8.63078 76.4665C8.71139 76.5917 8.83018 76.7085 8.98715 76.817C9.14413 76.9255 9.33717 77.0278 9.56627 77.1238C9.79537 77.2198 10.0605 77.3137 10.3618 77.4055C10.8666 77.5557 11.31 77.7247 11.6918 77.9125C12.0779 78.1003 12.4003 78.3111 12.6591 78.5447C12.9179 78.7784 13.1131 79.0434 13.2446 79.3397C13.3761 79.636 13.4419 79.972 13.4419 80.3476C13.4419 80.744 13.3634 81.0987 13.2064 81.4117C13.0494 81.7247 12.8225 81.9897 12.5255 82.2067C12.2285 82.4237 11.8742 82.5886 11.4627 82.7013C11.0512 82.8139 10.5909 82.8703 10.0817 82.8703C9.62354 82.8703 9.17171 82.8118 8.72623 82.695C8.28076 82.574 7.87559 82.3924 7.51073 82.1504C7.15011 81.9084 6.86161 81.5995 6.64524 81.2239C6.42887 80.8484 6.32068 80.4039 6.32068 79.8906H8.23621C8.23621 80.1744 8.28076 80.4143 8.36986 80.6105C8.45895 80.8066 8.58411 80.9652 8.74533 81.0862C8.91079 81.2073 9.10595 81.2949 9.3308 81.3491C9.55991 81.4034 9.81022 81.4305 10.0817 81.4305C10.4127 81.4305 10.6842 81.3846 10.8963 81.2928C11.1127 81.201 11.2718 81.0737 11.3736 80.911C11.4797 80.7482 11.5327 80.5646 11.5327 80.3601Z" fill="#222222"/>
<path d="M17.4038 82.8703C16.8692 82.8703 16.3898 82.7868 15.9656 82.6199C15.5413 82.4488 15.1807 82.213 14.8837 81.9125C14.591 81.6121 14.3661 81.2636 14.2091 80.8671C14.0521 80.4665 13.9737 80.0408 13.9737 79.5901V79.3397C13.9737 78.8264 14.0479 78.357 14.1964 77.9313C14.3449 77.5056 14.557 77.1363 14.8328 76.8233C15.1128 76.5103 15.4522 76.2704 15.851 76.1034C16.2498 75.9323 16.6995 75.8468 17.2002 75.8468C17.6881 75.8468 18.1208 75.9261 18.4984 76.0846C18.876 76.2432 19.1921 76.4686 19.4466 76.7607C19.7054 77.0528 19.9006 77.4034 20.0321 77.8124C20.1636 78.2172 20.2294 78.6679 20.2294 79.1645V79.9156H14.7564V78.7138H18.4284V78.576C18.4284 78.3257 18.3817 78.1024 18.2884 77.9062C18.1993 77.7059 18.0635 77.5474 17.8811 77.4305C17.6987 77.3137 17.4653 77.2552 17.1811 77.2552C16.9392 77.2552 16.7313 77.3074 16.5574 77.4117C16.3835 77.5161 16.2413 77.6621 16.131 77.8499C16.025 78.0377 15.9443 78.2589 15.8892 78.5135C15.8383 78.7638 15.8128 79.0393 15.8128 79.3397V79.5901C15.8128 79.8614 15.851 80.1118 15.9274 80.3413C16.008 80.5708 16.1204 80.7691 16.2647 80.936C16.4131 81.1029 16.5913 81.2323 16.7992 81.3241C17.0114 81.4159 17.2511 81.4618 17.5183 81.4618C17.8493 81.4618 18.1569 81.3992 18.4411 81.274C18.7296 81.1447 18.9778 80.9506 19.1857 80.6919L20.0766 81.6434C19.9324 81.8478 19.7351 82.044 19.4848 82.2318C19.2387 82.4196 18.9417 82.574 18.5938 82.695C18.246 82.8118 17.8493 82.8703 17.4038 82.8703Z" fill="#222222"/>
<path d="M22.7149 77.4493V82.7451H20.8821V75.972H22.6067L22.7149 77.4493ZM24.7895 75.9282L24.7577 77.5995C24.6686 77.587 24.5604 77.5766 24.4331 77.5682C24.3101 77.5557 24.1976 77.5494 24.0958 77.5494C23.837 77.5494 23.6122 77.5828 23.4212 77.6496C23.2346 77.7122 23.0776 77.8061 22.9503 77.9313C22.8273 78.0565 22.7339 78.2088 22.6703 78.3883C22.6109 78.5677 22.577 78.7722 22.5685 79.0017L22.1994 78.889C22.1994 78.4509 22.2439 78.0481 22.333 77.6809C22.4221 77.3095 22.5515 76.9861 22.7212 76.7106C22.8952 76.4352 23.1073 76.2224 23.3576 76.0721C23.6079 75.9219 23.8943 75.8468 24.2167 75.8468C24.3186 75.8468 24.4225 75.8551 24.5286 75.8718C24.6346 75.8843 24.7216 75.9031 24.7895 75.9282Z" fill="#222222"/>
<path d="M27.7204 81.4305L29.2478 75.972H31.1633L28.8405 82.7451H27.6823L27.7204 81.4305ZM26.6704 75.972L28.2041 81.4368L28.2359 82.7451H27.0713L24.7485 75.972H26.6704Z" fill="#222222"/>
<path d="M33.5279 75.972V82.7451H31.6887V75.972H33.5279ZM31.5742 74.2067C31.5742 73.9438 31.6675 73.7268 31.8542 73.5557C32.0409 73.3846 32.2912 73.299 32.6051 73.299C32.9148 73.299 33.163 73.3846 33.3497 73.5557C33.5406 73.7268 33.6361 73.9438 33.6361 74.2067C33.6361 74.4696 33.5406 74.6866 33.3497 74.8577C33.163 75.0288 32.9148 75.1144 32.6051 75.1144C32.2912 75.1144 32.0409 75.0288 31.8542 74.8577C31.6675 74.6866 31.5742 74.4696 31.5742 74.2067Z" fill="#222222"/>
<path d="M37.4962 81.4618C37.721 81.4618 37.9204 81.4201 38.0944 81.3366C38.2683 81.249 38.4041 81.128 38.5017 80.9736C38.6035 80.815 38.6565 80.6293 38.6608 80.4164H40.3854C40.3811 80.8922 40.2517 81.3158 39.9972 81.6872C39.7426 82.0544 39.4011 82.3445 38.9726 82.5573C38.5441 82.7659 38.0647 82.8703 37.5344 82.8703C36.9998 82.8703 36.5331 82.7826 36.1343 82.6074C35.7397 82.4321 35.4109 82.19 35.1479 81.8812C34.8848 81.5682 34.6876 81.2052 34.556 80.792C34.4245 80.3747 34.3588 79.9282 34.3588 79.4524V79.2709C34.3588 78.791 34.4245 78.3444 34.556 77.9313C34.6876 77.514 34.8848 77.1509 35.1479 76.8421C35.4109 76.5291 35.7397 76.285 36.1343 76.1097C36.5289 75.9344 36.9913 75.8468 37.5216 75.8468C38.0859 75.8468 38.5802 75.9532 39.0044 76.166C39.4329 76.3789 39.7681 76.6835 40.0099 77.08C40.256 77.4722 40.3811 77.9375 40.3854 78.4759H38.6608C38.6565 78.2505 38.6077 78.0461 38.5144 77.8624C38.4253 77.6788 38.2938 77.5327 38.1198 77.4242C37.9501 77.3116 37.7401 77.2552 37.4898 77.2552C37.2225 77.2552 37.004 77.3116 36.8343 77.4242C36.6646 77.5327 36.5331 77.683 36.4398 77.875C36.3464 78.0627 36.2807 78.2777 36.2425 78.5197C36.2085 78.7576 36.1916 79.008 36.1916 79.2709V79.4524C36.1916 79.7153 36.2085 79.9678 36.2425 80.2099C36.2764 80.4519 36.3401 80.6668 36.4334 80.8546C36.531 81.0424 36.6646 81.1906 36.8343 81.2991C37.004 81.4076 37.2246 81.4618 37.4962 81.4618Z" fill="#222222"/>
<path d="M44.2264 82.8703C43.6918 82.8703 43.2124 82.7868 42.7881 82.6199C42.3639 82.4488 42.0033 82.213 41.7063 81.9125C41.4135 81.6121 41.1887 81.2636 41.0317 80.8671C40.8747 80.4665 40.7962 80.0408 40.7962 79.5901V79.3397C40.7962 78.8264 40.8705 78.357 41.019 77.9313C41.1675 77.5056 41.3796 77.1363 41.6554 76.8233C41.9354 76.5103 42.2748 76.2704 42.6736 76.1034C43.0724 75.9323 43.5221 75.8468 44.0227 75.8468C44.5106 75.8468 44.9434 75.9261 45.321 76.0846C45.6986 76.2432 46.0146 76.4686 46.2692 76.7607C46.528 77.0528 46.7231 77.4034 46.8547 77.8124C46.9862 78.2172 47.052 78.6679 47.052 79.1645V79.9156H41.579V78.7138H45.251V78.576C45.251 78.3257 45.2043 78.1024 45.111 77.9062C45.0219 77.7059 44.8861 77.5474 44.7037 77.4305C44.5212 77.3137 44.2879 77.2552 44.0036 77.2552C43.7618 77.2552 43.5539 77.3074 43.38 77.4117C43.206 77.5161 43.0639 77.6621 42.9536 77.8499C42.8475 78.0377 42.7669 78.2589 42.7118 78.5135C42.6609 78.7638 42.6354 79.0393 42.6354 79.3397V79.5901C42.6354 79.8614 42.6736 80.1118 42.75 80.3413C42.8306 80.5708 42.943 80.7691 43.0872 80.936C43.2357 81.1029 43.4139 81.2323 43.6218 81.3241C43.8339 81.4159 44.0736 81.4618 44.3409 81.4618C44.6719 81.4618 44.9794 81.3992 45.2637 81.274C45.5522 81.1447 45.8004 80.9506 46.0083 80.6919L46.8992 81.6434C46.755 81.8478 46.5577 82.044 46.3074 82.2318C46.0613 82.4196 45.7643 82.574 45.4164 82.695C45.0685 82.8118 44.6719 82.8703 44.2264 82.8703Z" fill="#222222"/>
</svg>
