<svg width="43" height="41" viewBox="0 0 43 41" fill="none" xmlns="http://www.w3.org/2000/svg">
<g clip-path="url(#clip0_0_797)">
<path fill-rule="evenodd" clip-rule="evenodd" d="M40.7449 40.5452C43.2621 41.2824 40.0239 32.1238 40.0239 32.1238C41.4659 27.7238 42.8939 12.7024 41.9979 8.12381C41.1019 3.54381 37.7419 3.70238 31.5679 2.44952C25.2833 1.16381 9.47734 0.428095 6.04734 0.616667C2.63834 0.798095 0.13234 3.17381 0.48234 7.94524C0.84214 12.7024 6.31054 30.431 9.02234 34.831C11.7243 39.231 15.7185 38.4624 18.1013 38.1681C21.3689 37.7567 33.6693 34.831 33.6693 34.831C32.5689 33.3881 38.2277 39.8081 40.7435 40.5452H40.7449ZM24.2473 12.8595L26.4369 8.11095H32.9889L25.8265 22.0281V30.2281H18.3085V22.0281L14.3045 14.2481L11.1363 8.11095H17.6883L22.0619 17.5752L24.2473 12.8595Z" fill="#ED484A"/>
</g>
<defs>
<clipPath id="clip0_0_797">
<rect width="42" height="40" fill="white" transform="translate(0.447266 0.587891)"/>
</clipPath>
</defs>
</svg>
