<svg width="142" height="42" viewBox="0 0 142 42" fill="none" xmlns="http://www.w3.org/2000/svg">
<g clip-path="url(#clip0_0_776)">
<path d="M134.596 36.4149C137.35 36.4149 139.301 35.9122 140.755 34.8293V29.918C139.263 30.9622 137.465 31.6196 134.94 31.6196C130.694 31.6196 128.934 28.2938 128.934 23.0345C128.934 17.5044 131.076 14.6813 134.978 14.6813C137.274 14.6813 139.531 15.4934 140.717 16.2669V11.1622C139.454 10.4661 137.274 9.96338 134.29 9.96338C126.677 9.96338 122.737 15.4934 122.737 23.2278C122.775 31.6969 126.639 36.4149 134.596 36.4149ZM97.3732 34.1719V29.2606C95.5369 30.5368 92.3999 31.6583 89.5308 31.6583C85.1696 31.6583 83.5246 29.57 83.2569 25.3161H97.641V22.145C97.641 13.2892 93.7771 9.96338 87.8475 9.96338C80.579 9.96338 77.136 15.5708 77.136 23.2665C77.136 32.1223 81.4588 36.4149 89.0335 36.4149C92.8208 36.4149 95.6134 35.3708 97.3732 34.1719ZM42.7825 10.4274V20.4821H34.8253V10.4274H28.8574V35.9122H34.8253V25.2774H42.7825V35.9122H48.7503V10.4274H42.7825ZM75.644 31.1169H73.0044V10.4274H55.6363V12.5931C55.6363 18.8192 55.2538 26.863 53.1497 31.1169H51.2369V41.7129H56.7457V35.9122H70.0969V41.7129H75.6057V31.1169H75.644ZM116.386 35.9122H123.157L113.594 22.1837L122.01 10.4274H116.004L107.587 22.1837V10.4274H101.62V35.9122H107.587V23.3825L116.386 35.9122ZM87.6945 14.6813C90.6402 14.6813 91.5583 17.1563 91.5583 20.3661V20.8688H83.2569C83.4099 16.8083 84.8636 14.6813 87.6945 14.6813ZM67.0365 31.1169H58.6203C60.2653 27.2883 60.7243 20.3274 60.7243 15.9188V15.1454H67.0365V31.1169Z" fill="black"/>
<path d="M23.8844 35.9116H17.8017V5.47685H15.0856C10.1124 5.47685 7.51099 7.99051 7.51099 11.7417C7.51099 15.9956 9.309 17.9678 13.0198 20.4815L16.0802 22.5698L7.28145 35.9116H0.739746L8.65865 24.0006C4.10624 20.7135 1.54311 17.5038 1.54311 12.0897C1.54311 5.32216 6.2103 0.720215 15.0473 0.720215H23.8461L23.8844 35.9116Z" fill="#FC3F1D"/>
</g>
<defs>
<clipPath id="clip0_0_776">
<rect width="140.398" height="40.9921" fill="white" transform="translate(0.739746 0.720215)"/>
</clipPath>
</defs>
</svg>
