<svg width="15" height="13" viewBox="0 0 15 13" fill="none" xmlns="http://www.w3.org/2000/svg">
<path d="M14.0793 0.139927C13.4335 -0.193137 12.7133 0.449201 12.2911 0.829845C11.3225 1.73388 10.5029 2.78065 9.5839 3.73226C8.56561 4.77904 7.62184 5.82581 6.57871 6.84883C5.98264 7.4198 5.3369 8.03834 4.93952 8.75205C4.04542 7.91935 3.27549 7.01532 2.28204 6.27786C1.56179 5.75448 0.36965 5.37383 0.394486 6.63472C0.444158 8.27629 1.95917 10.0368 3.0768 11.1549C3.54869 11.6307 4.1696 12.1303 4.88985 12.1541C5.75912 12.2016 6.65322 11.2025 7.17478 10.6553C8.09377 9.70367 8.83885 8.63306 9.68325 7.6577C10.776 6.37302 11.8937 5.1121 12.9616 3.80363C13.6322 2.99476 15.7433 0.996339 14.0793 0.139927ZM1.48724 6.53956C1.4624 6.53956 1.43757 6.53956 1.3879 6.56331C1.28855 6.53956 1.21404 6.51573 1.1147 6.46815C1.18921 6.42057 1.31339 6.44436 1.48724 6.53956Z" fill="white"/>
</svg>
