<svg width="39" height="39" viewBox="0 0 39 39" fill="none" xmlns="http://www.w3.org/2000/svg">
<path d="M19.5 0C8.73049 0 0 8.73049 0 19.5C0 30.2695 8.73049 39 19.5 39C30.2695 39 39 30.27 39 19.5C39 8.73003 30.2695 0 19.5 0ZM19.4027 30.4049C19.4027 30.4049 18.4979 31.0064 17.8794 31.0036C17.8244 31.0289 17.7918 31.0435 17.7918 31.0435L17.7932 31.0036C17.6633 30.9977 17.5326 30.9793 17.4009 30.9463L17.2054 30.8981C16.1254 30.6301 15.5537 29.5592 15.8225 28.4796L17.3261 22.4181L18.0047 19.6803C18.636 17.1384 16.0028 20.2208 15.4628 19.0499C15.1063 18.2759 17.511 16.6516 19.2678 15.427C19.2678 15.427 20.1717 14.8264 20.7907 14.8287C20.8462 14.803 20.8788 14.7888 20.8788 14.7888L20.8765 14.8287C21.0072 14.8347 21.138 14.853 21.2697 14.8856L21.4651 14.9342C22.5452 15.2022 23.2032 16.2947 22.9352 17.3743L21.4321 23.4363L20.7521 26.1741C20.1217 28.7159 22.7113 25.6216 23.2509 26.7939C23.6074 27.567 21.1591 29.1803 19.4027 30.4049ZM23.2137 11.4582C22.8384 12.97 21.3087 13.8918 19.7973 13.5165C18.285 13.1412 17.3633 11.6119 17.7386 10.0996C18.1139 8.58734 19.6436 7.66602 21.155 8.04134C22.6673 8.4162 23.5886 9.94592 23.2137 11.4582Z" fill="#CAB9A5"/>
</svg>
