<svg width="24" height="24" viewBox="0 0 24 24" fill="none" xmlns="http://www.w3.org/2000/svg">
<circle cx="12" cy="12" r="12" fill="#C4C4C4"/>
<circle cx="12" cy="12" r="12" fill="#A9C99D"/>
<path d="M16.0629 8.26391C15.6924 8.07281 15.2792 8.44136 15.0369 8.65975C14.4812 9.17845 14.0109 9.77904 13.4837 10.325C12.8994 10.9256 12.3579 11.5262 11.7594 12.1132C11.4174 12.4408 11.0469 12.7957 10.8189 13.2052C10.3059 12.7274 9.86416 12.2087 9.29416 11.7856C8.88091 11.4853 8.19691 11.2669 8.21116 11.9903C8.23966 12.9322 9.10891 13.9423 9.75016 14.5838C10.0209 14.8568 10.3772 15.1435 10.7904 15.1571C11.2892 15.1844 11.8022 14.6111 12.1014 14.2972C12.6287 13.7512 13.0562 13.1369 13.5407 12.5773C14.1677 11.8402 14.8089 11.1167 15.4217 10.366C15.8064 9.90189 17.0177 8.75528 16.0629 8.26391ZM8.83813 11.9357C8.82388 11.9357 8.80963 11.9357 8.78113 11.9494C8.72413 11.9357 8.68138 11.9221 8.62438 11.8948C8.66713 11.8675 8.73838 11.8811 8.83813 11.9357Z" fill="white"/>
</svg>
