<svg width="10" height="17" viewBox="0 0 10 17" fill="none" xmlns="http://www.w3.org/2000/svg">
<path d="M4.99199 0C2.25223 0 0 2.13641 0 5.184C0 6.32174 0.434468 7.72892 0.893965 8.62183L4.64996 15.9178C4.71559 16.0463 4.84777 16.1272 4.99202 16.1272C5.13626 16.1272 5.26844 16.0463 5.33407 15.9178L9.09007 8.62183C9.54956 7.72879 9.98403 6.3216 9.98403 5.184C9.98403 2.13645 7.73177 0 4.99204 0H4.99199ZM4.99199 2.68793C6.26444 2.68793 7.29596 3.71945 7.29596 4.9919C7.29596 6.26434 6.26444 7.29586 4.99199 7.29586C3.71955 7.29586 2.68803 6.26434 2.68803 4.9919C2.68803 3.71945 3.71955 2.68793 4.99199 2.68793Z" fill="#BE5252"/>
</svg>
