<svg width="99" height="58" viewBox="0 0 99 58" fill="none" xmlns="http://www.w3.org/2000/svg">
<g clip-path="url(#clip0_453_2)">
<path d="M58.8283 32.645C58.8536 30.6171 58.8283 28.5768 58.8283 26.5489C58.8283 25.0684 58.4741 22.5056 60.9659 22.6051C63.3185 22.6922 63.0023 25.1431 63.0023 26.6111C63.0023 28.6265 62.977 30.6544 63.0023 32.6574H65.3423C65.3676 30.642 65.3423 28.6265 65.3423 26.6111C65.3423 25.1431 65.0134 22.63 67.4672 22.6051C69.9211 22.5802 69.529 25.1306 69.529 26.6857C69.529 28.6763 69.5037 30.6793 69.529 32.6699H71.9701C71.9954 30.8659 71.9701 29.0371 71.9701 27.2331C71.9701 25.4541 72.1093 23.8367 71.2744 22.4807C69.9843 20.3781 66.0759 19.5944 64.1913 22.6673C63.9257 22.4309 63.7359 21.8711 63.0276 21.3859C61.3327 20.2289 58.8283 20.6643 56.3745 20.6643V32.7072L58.8283 32.645Z" fill="#111111"/>
<path d="M96.4829 27.6316C96.3817 28.7762 96.0023 29.7217 95.3825 30.2815C93.675 31.8118 89.678 31.4261 90.2472 25.8276C90.4496 23.7749 91.7903 21.8963 94.2315 22.5681C96.1414 23.0782 96.698 25.2927 96.4829 27.6316ZM87.7175 27.4947C87.9452 30.804 90.3484 33.2922 93.9912 32.9439C97.7604 32.5831 99.1518 29.4107 98.9873 26.0765C98.5826 18.4626 87.0851 18.5123 87.7175 27.4947Z" fill="#111111"/>
<path d="M46.6857 22.4931C49.0763 22.0577 50.2526 24.0358 50.3664 26.1508C50.4803 28.1165 50.1261 30.6171 47.7735 31.0028C45.3703 31.3885 44.1813 29.5472 44.0801 27.37C43.9789 24.9689 44.5228 22.8912 46.6857 22.4931ZM52.8708 27.3576C53.3894 21.0997 47.0272 18.7235 43.3844 22.0204C42.4358 22.8788 41.7401 24.322 41.601 26.101C41.2974 29.7587 43.2706 32.5952 46.5592 32.9436C48.6968 33.1675 50.4676 32.334 51.4795 31.1272C51.8315 30.7094 52.1211 30.2444 52.3396 29.7462C52.6558 29.0247 52.7949 28.2409 52.8708 27.3576Z" fill="#111111"/>
<path d="M30.698 22.6553C33.8728 22.4313 35.7827 23.3769 35.9092 26.4125C36.0356 29.5849 34.5558 30.8415 31.4316 30.8415H30.9509L30.6853 30.829L30.698 22.6553ZM28.3074 32.6579C30.3438 32.7823 33.8222 32.8569 35.5677 31.8865C37.212 30.9783 38.4262 29.3485 38.4262 26.7608C38.4262 22.7299 35.6688 21.0628 32.2664 20.9011C31.2925 20.8513 29.256 20.7767 28.3074 20.9011V32.6579Z" fill="#111111"/>
<path d="M78.3702 22.7046H84.3657C84.3909 22.2941 84.4542 21.1619 84.3277 20.8633H76.7639C76.4603 20.8633 75.9797 20.7638 75.9797 21.0375V32.645L84.5554 32.6574L84.5933 30.7664H78.3955V27.4944L84.0874 27.482V25.6656H78.3955L78.3702 22.7046Z" fill="#111111"/>
<path d="M1.21426 0H58.8157V18.0644H56.3998V2.37623H2.41587V55.6113H56.3998V35.4569H58.8157V58H0V0H1.21426Z" fill="#F6E588"/>
</g>
<defs>
<clipPath id="clip0_453_2">
<rect width="99" height="58" fill="white"/>
</clipPath>
</defs>
</svg>
