<svg width="11" height="11" viewBox="0 0 11 11" fill="none" xmlns="http://www.w3.org/2000/svg">
<path d="M3.48109 0.138364C4.44243 0.138364 5.31271 0.52857 5.94251 1.15821C6.57326 1.78785 6.96236 2.65814 6.96236 3.61963C6.96236 4.35611 6.73413 5.03973 6.34284 5.60309L7.50097 6.76011C7.86419 6.65556 8.27791 6.72639 8.63438 7.08277L10.4953 8.94365C11.6129 10.0613 9.92294 11.7512 8.80529 10.6336L6.94441 8.77274C6.58794 8.41627 6.51712 8.00255 6.62175 7.63933L5.46473 6.4812C4.90142 6.87249 4.21892 7.10072 3.48127 7.10072C2.51993 7.10072 1.64965 6.7117 1.01985 6.08088C0.390206 5.45124 0 4.58095 0 3.61945C0 2.65812 0.390206 1.78783 1.01985 1.15803C1.64949 0.528389 2.51977 0.138184 3.48127 0.138184L3.48109 0.138364ZM5.48141 1.62034C4.96871 1.10874 4.26259 0.791638 3.48109 0.791638C2.70078 0.791638 1.99347 1.10874 1.48195 1.62034C0.970354 2.13194 0.653254 2.83916 0.653254 3.61947C0.653254 4.40097 0.970354 5.10709 1.48195 5.61861C1.99355 6.13021 2.70078 6.44731 3.48109 6.44731C4.26259 6.44731 4.96871 6.13021 5.48141 5.61861C5.99193 5.10701 6.30895 4.40089 6.30895 3.61947C6.30895 2.83916 5.99185 2.13186 5.48141 1.62034Z" fill="#606060"/>
<path d="M3.51353 1.7915C3.33006 1.7915 3.18135 1.94021 3.18135 2.12368V3.31954H1.9855C1.80203 3.31954 1.65332 3.46825 1.65332 3.65172C1.65332 3.83519 1.80203 3.9839 1.9855 3.9839H3.18135V5.17975C3.18135 5.36322 3.33006 5.51193 3.51353 5.51193C3.69701 5.51193 3.84572 5.36322 3.84572 5.17975V3.9839H5.04157C5.22504 3.9839 5.37375 3.83519 5.37375 3.65172C5.37375 3.46825 5.22504 3.31954 5.04157 3.31954H3.84572V2.12368C3.84572 1.94021 3.69701 1.7915 3.51353 1.7915Z" fill="#606060"/>
</svg>
