<svg width="53" height="53" viewBox="0 0 53 53" fill="none" xmlns="http://www.w3.org/2000/svg">
<path d="M52.5333 26.5C52.5333 40.8778 40.8778 52.5333 26.5 52.5333C12.1222 52.5333 0.46666 40.8778 0.466662 26.5C0.466665 12.1222 12.1222 0.466669 26.5 0.466671C40.8778 0.466674 52.5333 12.1222 52.5333 26.5Z" fill="#A8C89C" stroke="#A8C89C" stroke-width="0.933333"/>
<path d="M15.9218 24.8037C15.5264 23.7358 15.2401 22.6452 15.3265 21.4865C15.381 20.7731 15.6491 20.1642 16.1717 19.6643C16.7397 19.1281 17.276 18.5646 17.8349 18.0193C18.562 17.3014 19.4754 17.3059 20.2025 18.0193C20.6524 18.4601 21.0977 18.91 21.543 19.3598C21.9747 19.7915 22.411 20.2232 22.8427 20.6595C23.6016 21.4274 23.6061 22.3226 22.8472 23.086C22.3019 23.6313 21.7612 24.1812 21.2068 24.7174C21.0613 24.8582 21.0477 24.9764 21.125 25.1536C21.4885 26.0261 22.0156 26.8031 22.6064 27.5302C23.797 28.9934 25.1421 30.293 26.7462 31.2972C27.0916 31.5108 27.4688 31.6699 27.8278 31.8653C28.0141 31.9652 28.1368 31.9334 28.2867 31.7789C28.8275 31.22 29.3819 30.6702 29.9363 30.1203C30.6634 29.4023 31.5722 29.3978 32.2993 30.1203C33.19 31.0019 34.0761 31.888 34.9577 32.7786C35.6984 33.5239 35.6939 34.4372 34.9486 35.187C34.4442 35.696 33.9125 36.1776 33.4399 36.7093C32.7492 37.4818 31.8767 37.7363 30.886 37.6817C29.441 37.6045 28.1095 37.1228 26.8235 36.5003C23.9697 35.1143 21.5339 33.1921 19.4936 30.7656C17.9849 28.9661 16.7397 27.0121 15.9218 24.8037ZM37.6888 26.4305C37.6888 20.3005 32.6992 15.311 26.569 15.311V17.4286C31.5313 17.4286 35.5712 21.4683 35.5712 26.4305H37.6888ZM31.5995 26.4305H33.7171C33.7171 22.4907 30.5089 19.2826 26.569 19.2826V21.4002C27.9141 21.4002 29.1774 21.9227 30.1272 22.8724C31.0769 23.8222 31.5995 25.0854 31.5995 26.4305Z" fill="white"/>
</svg>
