<svg width="50" height="49" viewBox="0 0 50 49" fill="none" xmlns="http://www.w3.org/2000/svg">
<path d="M0 0L48.5751 13.9813V49H0V0Z" fill="#FFE098"/>
<path fill-rule="evenodd" clip-rule="evenodd" d="M7.67299 11.7602H10.1036V7.60379L5.23835 6.19486V4.44287H3.62695V11.7602H6.0576V9.45641H7.67299V11.7602Z" fill="white"/>
<path d="M3.55859 28.1328V26.3139C5.37207 24.8296 6.63631 23.664 7.35134 22.8173C8.07673 21.9601 8.43942 21.1552 8.43942 20.4026C8.43942 19.8381 8.25808 19.4199 7.89538 19.1482C7.54305 18.8659 7.07673 18.7248 6.49642 18.7248C5.67777 18.7248 4.84357 18.9705 3.99383 19.4618L3.77621 17.6429C4.68813 17.2143 5.76585 17 7.00937 17C8.07673 17 8.96274 17.2718 9.6674 17.8154C10.3721 18.3589 10.7244 19.1429 10.7244 20.1674C10.7244 20.8782 10.5275 21.5786 10.1337 22.2685C9.73994 22.9479 9.05601 23.7529 8.08191 24.6832C7.35652 25.3731 6.63632 25.9585 5.92129 26.4394V26.4707C6.90575 26.4394 7.97828 26.4237 9.13891 26.4237H10.9576V28.1328H3.55859ZM16.6265 28.321C13.9633 28.321 12.6317 26.4655 12.6317 22.7546C12.6317 20.7998 12.9633 19.352 13.6265 18.4112C14.2897 17.4704 15.3156 17 16.7042 17C19.2845 17 20.5747 18.8764 20.5747 22.6291C20.5747 26.4237 19.2586 28.321 16.6265 28.321ZM16.6265 26.7059C17.1964 26.7059 17.6317 26.3662 17.9322 25.6867C18.2431 24.9968 18.3985 23.9933 18.3985 22.6762C18.3985 19.9687 17.8026 18.615 16.6109 18.615C15.4192 18.615 14.8234 19.9322 14.8234 22.5664C14.8234 25.3261 15.4244 26.7059 16.6265 26.7059ZM22.0779 28.1328V26.3139C23.8914 24.8296 25.1556 23.664 25.8706 22.8173C26.596 21.9601 26.9587 21.1552 26.9587 20.4026C26.9587 19.8381 26.7774 19.4199 26.4147 19.1482C26.0624 18.8659 25.596 18.7248 25.0157 18.7248C24.1971 18.7248 23.3629 18.9705 22.5131 19.4618L22.2955 17.6429C23.2074 17.2143 24.2852 17 25.5287 17C26.596 17 27.482 17.2718 28.1867 17.8154C28.8914 18.3589 29.2437 19.1429 29.2437 20.1674C29.2437 20.8782 29.0468 21.5786 28.653 22.2685C28.2593 22.9479 27.5753 23.7529 26.6012 24.6832C25.8758 25.3731 25.1556 25.9585 24.4406 26.4394V26.4707C25.4251 26.4394 26.4976 26.4237 27.6582 26.4237H29.4769V28.1328H22.0779ZM34.7105 28.1328V22.4096C34.7105 21.1866 34.7313 20.1883 34.7727 19.4147H34.7416C34.5033 19.6551 34.0629 20.0367 33.4204 20.5594L32.8608 21.0141L31.7883 19.5402L34.9437 17.1882H36.9178V28.1328H34.7105Z" fill="#363636"/>
<path d="M3.68459 37.1094V32.2756H5.15376C6.33916 32.2756 6.93187 32.6887 6.93187 33.5152C6.93187 33.7968 6.8472 34.0346 6.67786 34.2285C6.50852 34.4224 6.26137 34.554 5.9364 34.6232V34.6371C6.28883 34.6832 6.56344 34.8079 6.76024 35.0111C6.95704 35.2096 7.05545 35.4681 7.05545 35.7867C7.05545 36.1053 6.96163 36.3684 6.77397 36.5762C6.58631 36.7794 6.35748 36.9201 6.08744 36.9986C5.82199 37.0725 5.51762 37.1094 5.17436 37.1094H3.68459ZM4.61827 34.3116H4.87229C5.23844 34.3116 5.51533 34.2655 5.70299 34.1731C5.89064 34.0807 5.98446 33.9054 5.98446 33.6468C5.98446 33.402 5.89292 33.2336 5.70985 33.1412C5.53135 33.0443 5.2842 32.9958 4.9684 32.9958H4.61827V34.3116ZM4.61827 36.3823H4.93407C5.33226 36.3823 5.62289 36.3269 5.80596 36.2161C5.99362 36.1053 6.08744 35.9252 6.08744 35.6759C6.08744 35.4312 5.99133 35.2558 5.7991 35.1496C5.60687 35.0433 5.30251 34.9903 4.88602 34.9903H4.61827V36.3823ZM9.38949 37.1925C8.80365 37.1925 8.33681 37.0263 7.98897 36.6939C7.64112 36.3615 7.46721 35.8999 7.46721 35.3089C7.46721 34.7687 7.62968 34.3255 7.95464 33.9792C8.28418 33.6329 8.7121 33.4598 9.23845 33.4598C10.2728 33.4598 10.79 34.0946 10.79 35.3643C10.79 35.4474 10.7854 35.5212 10.7763 35.5859H8.40775C8.41232 35.8583 8.5153 36.0776 8.71669 36.2438C8.91806 36.4054 9.17894 36.4862 9.49933 36.4862C9.8792 36.4862 10.2225 36.3892 10.5291 36.1953L10.5429 36.9571C10.2179 37.114 9.83344 37.1925 9.38949 37.1925ZM8.39402 34.9487H9.94558C9.94558 34.3947 9.69843 34.1177 9.20412 34.1177C8.98901 34.1177 8.80594 34.1893 8.6549 34.3324C8.50387 34.4755 8.4169 34.681 8.39402 34.9487ZM12.2216 37.1925C11.8234 37.1925 11.4595 37.1302 11.13 37.0056L11.178 36.2715C11.5122 36.4331 11.844 36.5139 12.1735 36.5139C12.3383 36.5139 12.4756 36.4816 12.5854 36.4169C12.6953 36.3477 12.7502 36.2531 12.7502 36.133C12.7502 36.0083 12.7044 35.9114 12.6129 35.8421C12.5259 35.7729 12.3406 35.6874 12.0568 35.5859C11.7181 35.4658 11.4755 35.3296 11.3291 35.1773C11.1872 35.0203 11.1163 34.8126 11.1163 34.554C11.1163 34.217 11.2421 33.9515 11.4939 33.7576C11.7502 33.5591 12.0911 33.4598 12.5168 33.4598C12.8875 33.4598 13.2079 33.5152 13.478 33.626L13.4025 34.3185C13.1095 34.1846 12.828 34.1177 12.558 34.1177C12.3978 34.1177 12.2673 34.15 12.1667 34.2147C12.0705 34.2793 12.0225 34.3716 12.0225 34.4917C12.0225 34.607 12.0637 34.6971 12.1461 34.7618C12.233 34.8217 12.4069 34.8957 12.6678 34.9834C13.0065 35.0987 13.2583 35.235 13.4231 35.392C13.5878 35.5489 13.6702 35.7705 13.6702 36.0568C13.6702 36.4169 13.5374 36.6963 13.272 36.8948C13.0111 37.0932 12.661 37.1925 12.2216 37.1925ZM15.6149 37.151C15.2121 37.151 14.9192 37.0448 14.7361 36.8324C14.553 36.6201 14.4615 36.2784 14.4615 35.8075V34.2285H13.7819V33.5429H14.4753V32.795L15.3403 32.4972V33.5429H16.1847V34.2285H15.3403V35.6205C15.3403 35.9021 15.3768 36.1029 15.4501 36.223C15.5279 36.3431 15.6744 36.4031 15.8895 36.4031C16.0039 36.4031 16.1161 36.3846 16.2259 36.3477L16.2465 37.061C16.0817 37.1209 15.8711 37.151 15.6149 37.151ZM19.8074 37.1925C19.2582 37.1925 18.8097 37.0218 18.4618 36.6801C18.1185 36.3338 17.9469 35.8837 17.9469 35.3296C17.9469 34.7572 18.1185 34.3023 18.4618 33.9653C18.8097 33.6284 19.2674 33.4598 19.8349 33.4598C20.3795 33.4598 20.8212 33.6329 21.1599 33.9792C21.4986 34.3209 21.6679 34.7733 21.6679 35.3366C21.6679 35.8906 21.4963 36.3384 21.153 36.6801C20.8097 37.0218 20.3613 37.1925 19.8074 37.1925ZM19.8005 36.4862C20.0751 36.4862 20.2926 36.3799 20.4527 36.1676C20.6175 35.9553 20.6999 35.6666 20.6999 35.3019C20.6999 34.9372 20.6198 34.6533 20.4596 34.4501C20.304 34.2469 20.0867 34.1454 19.8074 34.1454C19.5328 34.1454 19.3178 34.2493 19.1621 34.457C19.0065 34.6648 18.9286 34.958 18.9286 35.3366C18.9286 35.6874 19.0065 35.9668 19.1621 36.1745C19.3223 36.3823 19.5351 36.4862 19.8005 36.4862ZM22.5544 37.1094V34.2285H21.861V33.5429H22.5544V33.2936C22.5544 32.795 22.6551 32.4303 22.8565 32.1994C23.0624 31.9639 23.3873 31.8462 23.8314 31.8462C24.0236 31.8462 24.1997 31.8693 24.36 31.9154L24.2845 32.6357C24.17 32.5848 24.0532 32.5595 23.9343 32.5595C23.7649 32.5595 23.646 32.6149 23.5773 32.7257C23.5087 32.8319 23.4744 33.0166 23.4744 33.2797V33.5429H24.2845V34.2285H23.4744V37.1094H22.5544ZM26.3001 37.1094V32.2756H27.275V34.2008H29.1973V32.2756H30.1653V37.1094H29.1973V35.018H27.275V37.1094H26.3001ZM32.6672 37.1925C32.118 37.1925 31.6694 37.0218 31.3216 36.6801C30.9784 36.3338 30.8067 35.8837 30.8067 35.3296C30.8067 34.7572 30.9784 34.3023 31.3216 33.9653C31.6694 33.6284 32.1272 33.4598 32.6947 33.4598C33.2394 33.4598 33.681 33.6329 34.0197 33.9792C34.3584 34.3209 34.5277 34.7733 34.5277 35.3366C34.5277 35.8906 34.3561 36.3384 34.0128 36.6801C33.6696 37.0218 33.221 37.1925 32.6672 37.1925ZM32.6604 36.4862C32.935 36.4862 33.1523 36.3799 33.3126 36.1676C33.4773 35.9553 33.5597 35.6666 33.5597 35.3019C33.5597 34.9372 33.4797 34.6533 33.3194 34.4501C33.1639 34.2469 32.9464 34.1454 32.6672 34.1454C32.3926 34.1454 32.1775 34.2493 32.0219 34.457C31.8663 34.6648 31.7885 34.958 31.7885 35.3366C31.7885 35.6874 31.8663 35.9668 32.0219 36.1745C32.1821 36.3823 32.395 36.4862 32.6604 36.4862ZM36.3135 37.1925C35.9382 37.1925 35.6361 37.0679 35.4073 36.8186C35.183 36.5647 35.0709 36.2276 35.0709 35.8075V33.5429H35.9771V35.392C35.9771 35.7337 36.0251 35.9921 36.1213 36.1676C36.2174 36.3431 36.3913 36.4308 36.643 36.4308C36.8994 36.4308 37.103 36.3269 37.254 36.1191C37.4051 35.9068 37.4806 35.6413 37.4806 35.3227V33.5429H38.3937V36.0499C38.3937 36.5578 38.4052 36.911 38.428 37.1094H37.5698C37.5516 36.9155 37.5424 36.7193 37.5424 36.5208H37.5286C37.254 36.9686 36.849 37.1925 36.3135 37.1925ZM38.922 37.1094V36.3338C39.8328 35.2857 40.4622 34.5863 40.81 34.2354H38.9838V33.5429H41.8535V34.2839C40.9381 35.355 40.3088 36.0637 39.9655 36.41H41.9153V37.1094H38.922ZM42.1755 37.1094V36.3338C43.0863 35.2857 43.7157 34.5863 44.0635 34.2354H42.2373V33.5429H45.107V34.2839C44.1916 35.355 43.5623 36.0637 43.219 36.41H45.1688V37.1094H42.1755ZM4.77617 44.3792C4.32764 44.3792 3.90428 44.31 3.50609 44.1715L3.59534 43.3196C3.97523 43.5043 4.35052 43.5967 4.72125 43.5967C4.98213 43.5967 5.19266 43.5436 5.35286 43.4374C5.51305 43.3311 5.59314 43.1835 5.59314 42.9941C5.59314 42.8095 5.52906 42.6594 5.40091 42.544C5.27277 42.4239 5.02789 42.297 4.66633 42.1631C4.23611 42.0062 3.92488 41.8214 3.73265 41.6091C3.54499 41.3967 3.45117 41.1197 3.45117 40.778C3.45117 40.3532 3.60678 40.0139 3.91801 39.76C4.23381 39.5061 4.6503 39.3791 5.16749 39.3791C5.59314 39.3791 5.97989 39.4369 6.32773 39.5523L6.25221 40.3417C5.90894 40.2032 5.58398 40.134 5.27734 40.134C5.02562 40.134 4.82423 40.1848 4.67319 40.2863C4.52216 40.3833 4.44664 40.5149 4.44664 40.6811C4.44664 40.838 4.50613 40.9696 4.62514 41.0758C4.74414 41.1821 4.97297 41.2974 5.31166 41.4221C5.7602 41.5837 6.08287 41.7776 6.27967 42.0038C6.48106 42.2254 6.58174 42.5139 6.58174 42.8695C6.58174 43.3311 6.41927 43.6982 6.09431 43.9706C5.76935 44.2431 5.32997 44.3792 4.77617 44.3792ZM8.85313 44.3792C8.2673 44.3792 7.80046 44.213 7.45261 43.8806C7.10477 43.5482 6.93085 43.0865 6.93085 42.4955C6.93085 41.9553 7.09334 41.5121 7.41828 41.1659C7.74782 40.8196 8.17576 40.6465 8.70209 40.6465C9.73647 40.6465 10.2536 41.2812 10.2536 42.5509C10.2536 42.634 10.2491 42.7079 10.2399 42.7725H7.87139C7.87598 43.045 7.97896 43.2642 8.18033 43.4304C8.38172 43.5921 8.6426 43.6728 8.96297 43.6728C9.34286 43.6728 9.68612 43.5759 9.99276 43.382L10.0065 44.1438C9.68155 44.3007 9.29709 44.3792 8.85313 44.3792ZM7.85766 42.1354H9.40922C9.40922 41.5814 9.16207 41.3044 8.66776 41.3044C8.45266 41.3044 8.26958 41.376 8.11854 41.5191C7.96751 41.6621 7.88055 41.8677 7.85766 42.1354ZM10.7996 44.2961V41.7891C10.7996 41.3321 10.7882 40.9789 10.7653 40.7296H11.6303C11.6486 40.9419 11.6578 41.1682 11.6578 41.4082H11.6715C11.8729 40.9003 12.2116 40.6465 12.6876 40.6465C12.8111 40.6465 12.9118 40.6603 12.9896 40.688L12.969 41.4844C12.8729 41.4522 12.7676 41.4359 12.6532 41.4359C12.0399 41.4359 11.7333 41.9045 11.7333 42.8418V44.2961H10.7996ZM14.2017 44.2961L12.9042 40.7296H13.8996L14.5175 42.7102C14.6273 43.0658 14.7075 43.3543 14.7578 43.5759H14.7715C14.8586 43.2342 14.9409 42.9457 15.0187 42.7102L15.6434 40.7296H16.5702L15.2864 44.2961H14.2017ZM16.9657 40.0509V39.1644H17.8856V40.0509H16.9657ZM16.9657 44.2961V40.7296H17.8856V44.2961H16.9657ZM20.3782 44.3446C19.7925 44.3446 19.3233 44.1807 18.9709 43.8529C18.6185 43.525 18.4422 43.0842 18.4422 42.5301C18.4422 41.9715 18.6254 41.526 18.9915 41.1936C19.3622 40.8566 19.8153 40.688 20.3508 40.688C20.6346 40.688 20.8794 40.7203 21.0854 40.785L21.0167 41.4914C20.8429 41.4175 20.6575 41.3805 20.4606 41.3805C20.1266 41.3805 19.8657 41.4868 19.678 41.6991C19.495 41.9114 19.4034 42.1815 19.4034 42.5094C19.4034 42.8464 19.4926 43.1188 19.6711 43.3266C19.8543 43.5297 20.1242 43.6313 20.4812 43.6313C20.6964 43.6313 20.8955 43.5897 21.0785 43.5066L21.1266 44.2338C20.9023 44.3076 20.6529 44.3446 20.3782 44.3446ZM23.3507 44.3792C22.7649 44.3792 22.2981 44.213 21.9501 43.8806C21.6023 43.5482 21.4284 43.0865 21.4284 42.4955C21.4284 41.9553 21.5909 41.5121 21.9158 41.1659C22.2453 40.8196 22.6733 40.6465 23.1996 40.6465C24.2341 40.6465 24.7512 41.2812 24.7512 42.5509C24.7512 42.634 24.7466 42.7079 24.7374 42.7725H22.3689C22.3736 43.045 22.4766 43.2642 22.6779 43.4304C22.8793 43.5921 23.1402 43.6728 23.4605 43.6728C23.8404 43.6728 24.1837 43.5759 24.4903 43.382L24.504 44.1438C24.1792 44.3007 23.7947 44.3792 23.3507 44.3792ZM22.3552 42.1354H23.9067C23.9067 41.5814 23.6596 41.3044 23.1653 41.3044C22.9503 41.3044 22.7671 41.376 22.6161 41.5191C22.465 41.6621 22.3781 41.8677 22.3552 42.1354Z" fill="#6C6C6C"/>
</svg>
