<svg width="21" height="21" viewBox="0 0 21 21" fill="none" xmlns="http://www.w3.org/2000/svg">
<g filter="url(#filter0_ii_552_2)">
<circle cx="10.1792" cy="10.1792" r="10.1792" fill="#C4C4C4"/>
<circle cx="10.1792" cy="10.1792" r="10.1792" fill="#A9C99D"/>
</g>
<path d="M13.6254 7.00998C13.3111 6.84788 12.9606 7.16051 12.7551 7.34577C12.2837 7.78576 11.8848 8.29522 11.4375 8.75837C10.9419 9.26783 10.4826 9.7773 9.97489 10.2752C9.68478 10.5531 9.3705 10.8541 9.17709 11.2015C8.74193 10.7962 8.36721 10.3562 7.8837 9.99731C7.53316 9.74258 6.95294 9.55732 6.96503 10.171C6.98921 10.9699 7.72656 11.8268 8.27051 12.3709C8.50018 12.6025 8.80237 12.8457 9.15292 12.8573C9.57599 12.8804 10.0112 12.3941 10.265 12.1278C10.7123 11.6646 11.0749 11.1436 11.4859 10.6689C12.0177 10.0436 12.5617 9.42993 13.0814 8.79311C13.4078 8.39943 14.4353 7.4268 13.6254 7.00998ZM7.49687 10.1247C7.48478 10.1247 7.4727 10.1247 7.44852 10.1362C7.40017 10.1247 7.36391 10.1131 7.31556 10.0899C7.35182 10.0668 7.41226 10.0783 7.49687 10.1247Z" fill="white"/>
<defs>
<filter id="filter0_ii_552_2" x="0" y="0" width="20.3584" height="20.3583" filterUnits="userSpaceOnUse" color-interpolation-filters="sRGB">
<feFlood flood-opacity="0" result="BackgroundImageFix"/>
<feBlend mode="normal" in="SourceGraphic" in2="BackgroundImageFix" result="shape"/>
<feColorMatrix in="SourceAlpha" type="matrix" values="0 0 0 0 0 0 0 0 0 0 0 0 0 0 0 0 0 0 127 0" result="hardAlpha"/>
<feMorphology radius="1.1338" operator="erode" in="SourceAlpha" result="effect1_innerShadow_552_2"/>
<feOffset/>
<feComposite in2="hardAlpha" operator="arithmetic" k2="-1" k3="1"/>
<feColorMatrix type="matrix" values="0 0 0 0 1 0 0 0 0 1 0 0 0 0 1 0 0 0 0.09 0"/>
<feBlend mode="normal" in2="shape" result="effect1_innerShadow_552_2"/>
<feColorMatrix in="SourceAlpha" type="matrix" values="0 0 0 0 0 0 0 0 0 0 0 0 0 0 0 0 0 0 127 0" result="hardAlpha"/>
<feOffset/>
<feGaussianBlur stdDeviation="8.18213"/>
<feComposite in2="hardAlpha" operator="arithmetic" k2="-1" k3="1"/>
<feColorMatrix type="matrix" values="0 0 0 0 1 0 0 0 0 1 0 0 0 0 1 0 0 0 0.33 0"/>
<feBlend mode="normal" in2="effect1_innerShadow_552_2" result="effect2_innerShadow_552_2"/>
</filter>
</defs>
</svg>
