<svg width="21" height="20" viewBox="0 0 21 20" fill="none" xmlns="http://www.w3.org/2000/svg">
<path d="M14.868 19.6301C14.1032 19.6344 13.3092 19.4689 12.5424 19.1053L4.53433 15.3841C4.05155 15.1603 3.68107 14.7659 3.50842 14.257C3.33558 13.7482 3.36101 13.2099 3.58485 12.7271C3.61265 12.642 3.69717 12.5565 3.78201 12.5278C4.60048 12.0134 6.24204 11.7774 7.17918 12.1971L3.46384 6.29936C3.17804 5.84779 3.09004 5.3103 3.20045 4.79991C3.31086 4.28957 3.6483 3.83447 4.09978 3.54867C5.03137 2.97697 6.27908 3.25312 6.85081 4.18451L8.50855 6.8372C8.6493 6.69488 8.79023 6.55238 8.95974 6.46644C9.55245 6.09488 10.2888 6.06244 10.8853 6.37056C11.0536 6.05811 11.2787 5.8019 11.5891 5.60188C12.1818 5.23032 12.9182 5.19789 13.5147 5.506C13.6829 5.19355 13.908 4.93734 14.2185 4.73732C14.6984 4.45138 15.2644 4.3632 15.8033 4.50185C16.3139 4.64048 16.7406 4.94973 16.998 5.40129L19.9452 10.7089C21.3759 13.3064 20.4854 16.143 18.9368 17.7944C17.782 18.9623 16.3411 19.6217 14.8683 19.63L14.868 19.6301ZM4.40893 13.289C4.35332 13.4876 4.35459 13.714 4.44069 13.9118C4.52712 14.1663 4.72649 14.3634 4.95365 14.4754L12.9622 18.1967C15.1205 19.204 17.0979 18.2583 18.2241 17.0625C19.5192 15.6675 20.2989 13.2842 19.0973 11.1388L16.1216 5.80268C16.0072 5.60509 15.808 5.43625 15.5527 5.38116C15.269 5.29778 14.9861 5.3561 14.732 5.49906C14.4497 5.67062 14.2813 5.9548 14.255 6.29471C14.2278 6.49311 14.1155 6.66371 13.9177 6.74981C13.7198 6.80765 13.5212 6.75206 13.3789 6.61134C13.0653 6.24491 12.4983 6.16313 12.0749 6.42048C11.7926 6.59205 11.6242 6.87622 11.5978 7.21613C11.5707 7.41453 11.4584 7.58513 11.2606 7.67123C11.0626 7.72907 10.8641 7.67348 10.7217 7.53276C10.4081 7.16633 9.84115 7.08455 9.41778 7.3419C9.19204 7.4847 9.02332 7.71234 8.96818 7.99585C8.91257 8.1944 8.77182 8.33672 8.57388 8.39455C8.37578 8.42394 8.17704 8.34008 8.06283 8.17094L5.9479 4.78441C5.66195 4.30458 5.0381 4.16656 4.55833 4.48078C4.33259 4.62358 4.16387 4.85122 4.10857 5.10633C4.05328 5.3616 4.08331 5.64446 4.22612 5.87036L8.82759 13.2077C8.94197 13.4053 8.91497 13.6319 8.7742 13.8027C8.63361 13.9735 8.37895 14.0314 8.18007 13.9193L6.75882 13.1058C6.21916 12.854 5.05866 12.9739 4.40888 13.289L4.40893 13.289Z" fill="#B8A646"/>
<path d="M3.51019 9.58429C3.45347 9.58461 3.39693 9.58493 3.34005 9.55698C1.41031 8.88812 0.097208 7.05455 0.0856298 4.98711C0.0705625 2.29662 2.23908 0.103504 4.92961 0.0882788C7.30862 0.0748162 9.3861 1.84735 9.76743 4.16774C9.79729 4.45082 9.62891 4.70656 9.34584 4.73661C9.06275 4.76648 8.80703 4.59812 8.77699 4.31504C8.48329 2.44743 6.83283 1.06895 4.9353 1.07969C2.8111 1.09171 1.09326 2.82919 1.10515 4.95321C1.11435 6.59593 2.14194 8.03442 3.70285 8.59211C3.95829 8.67566 4.10141 8.95809 4.01801 9.24179C3.90586 9.44068 3.7084 9.58333 3.51016 9.58446L3.51019 9.58429Z" fill="#B8A646"/>
</svg>
