<svg width="64" height="58" viewBox="0 0 64 58" fill="none" xmlns="http://www.w3.org/2000/svg">
<path d="M15.9438 33.0295C18.5397 33.793 20.5248 35.2436 21.899 37.3814C23.426 39.3665 24.1895 41.8097 24.1895 44.7109C24.1895 48.3757 23.0443 51.3533 20.7538 53.6438C18.4633 55.9343 15.6384 57.0795 12.279 57.0795C8.61429 57.0795 5.63667 55.9343 3.34619 53.6438C1.20841 51.2006 0.139525 48.223 0.139525 44.7109C0.139525 42.8786 0.292223 41.1225 0.59762 39.4428C1.05572 37.6105 1.89556 35.0146 3.11714 31.6552L12.7371 0.046654L23.7314 0.046654L15.9438 33.0295ZM54.8819 33.0295C57.4778 33.793 59.4629 35.2436 60.8371 37.3814C62.3641 39.3665 63.1276 41.8097 63.1276 44.7109C63.1276 48.3757 61.9824 51.3533 59.6919 53.6438C57.4014 55.9343 54.5765 57.0795 51.2171 57.0795C47.5524 57.0795 44.5748 55.9343 42.2843 53.6438C40.1465 51.2006 39.0776 48.223 39.0776 44.7109C39.0776 42.8786 39.2303 41.1225 39.5357 39.4428C39.9938 37.6105 40.8337 35.0146 42.0552 31.6552L51.6752 0.046654H62.6695L54.8819 33.0295Z" fill="#EEE6DC"/>
</svg>
