<svg width="23" height="24" viewBox="0 0 23 24" fill="none" xmlns="http://www.w3.org/2000/svg">
<path d="M7.10307 0.927065C9.05964 0.927065 10.8309 1.72123 12.1127 3.00272C13.3964 4.2842 14.1884 6.05545 14.1884 8.01235C14.1884 9.51128 13.7238 10.9026 12.9275 12.0492L15.2846 14.404C16.0238 14.1913 16.8658 14.3354 17.5914 15.0607L21.3787 18.8481C23.6534 21.1228 20.2139 24.5623 17.9392 22.2876L14.1518 18.5003C13.4263 17.7747 13.2822 16.9327 13.4951 16.1935L11.1403 13.8364C9.99382 14.6328 8.60473 15.0973 7.10344 15.0973C5.14686 15.0973 3.37561 14.3055 2.0938 13.0216C0.812313 11.7401 0.0181427 9.96889 0.0181427 8.01199C0.0181427 6.05541 0.812313 4.28416 2.0938 3.00235C3.37528 1.72087 5.14653 0.926697 7.10344 0.926697L7.10307 0.927065ZM11.1742 3.94327C10.1308 2.90203 8.69361 2.25665 7.10307 2.25665C5.51493 2.25665 4.07538 2.90203 3.03431 3.94327C1.99307 4.98451 1.34768 6.42389 1.34768 8.01203C1.34768 9.60257 1.99307 11.0397 3.03431 12.0808C4.07554 13.122 5.51493 13.7674 7.10307 13.7674C8.69361 13.7674 10.1308 13.122 11.1742 12.0808C12.2133 11.0395 12.8585 9.60241 12.8585 8.01203C12.8585 6.42389 12.2131 4.98434 11.1742 3.94327Z" fill="white"/>
<path d="M7.16891 4.29144C6.7955 4.29144 6.49283 4.59411 6.49283 4.96752V7.40139H4.05896C3.68555 7.40139 3.38289 7.70405 3.38289 8.07746C3.38289 8.45087 3.68555 8.75354 4.05896 8.75354H6.49283V11.1874C6.49283 11.5608 6.7955 11.8635 7.16891 11.8635C7.54232 11.8635 7.84498 11.5608 7.84498 11.1874V8.75354H10.2789C10.6523 8.75354 10.9549 8.45087 10.9549 8.07746C10.9549 7.70405 10.6523 7.40139 10.2789 7.40139H7.84498V4.96752C7.84498 4.59411 7.54232 4.29144 7.16891 4.29144Z" fill="white"/>
</svg>
