<svg width="23" height="24" viewBox="0 0 23 24" fill="none" xmlns="http://www.w3.org/2000/svg">
<path d="M11.6484 0.923077C5.55645 0.923077 0.600098 5.89228 0.600098 12C0.600098 18.1077 5.55645 23.0769 11.6484 23.0769C17.7408 23.0769 22.6967 18.1077 22.6967 12C22.6967 5.89228 17.7408 0.923077 11.6484 0.923077ZM16.439 14.1841C17.5136 15.1405 17.7369 15.482 17.7734 15.5403C18.2187 16.2482 17.2796 16.3344 17.2796 16.3344H15.3006C15.3006 16.3344 14.8187 16.3397 14.4071 16.0662C13.736 15.6255 13.0333 14.7712 12.5394 14.9195C12.1249 15.0437 12.1287 15.6053 12.1287 16.0855C12.1287 16.2574 11.9813 16.3344 11.6484 16.3344C11.3155 16.3344 11.1771 16.3344 11.0297 16.3344C9.9455 16.3344 8.7691 15.9684 7.59558 14.7389C5.93545 13.0008 4.47948 9.49951 4.47948 9.49951C4.47948 9.49951 4.3935 9.32324 4.48717 9.21584C4.59333 9.09544 4.88202 9.11085 4.88202 9.11085L6.80106 9.11037C6.80106 9.11037 6.98168 9.14456 7.11138 9.23607C7.2185 9.3112 7.27806 9.45472 7.27806 9.45472C7.27806 9.45472 7.60038 10.522 8.01109 11.2025C8.81329 12.5307 9.18653 12.5644 9.45889 12.4214C9.85663 12.2143 9.72693 10.8022 9.72693 10.8022C9.72693 10.8022 9.74471 10.1959 9.53719 9.92573C9.37723 9.71671 9.07124 9.60546 8.9377 9.58812C8.82962 9.57415 9.01024 9.3844 9.24033 9.27604C9.54776 9.13878 9.96615 9.10363 10.6877 9.11037C11.2492 9.11567 11.4111 9.14938 11.6301 9.19995C12.2925 9.3531 12.1287 9.75716 12.1287 11.176C12.1287 11.6306 12.0663 12.2697 12.4083 12.4816C12.5558 12.5731 13.0611 12.6848 13.9603 11.2208C14.3874 10.5263 14.727 9.37429 14.727 9.37429C14.727 9.37429 14.7971 9.24763 14.9062 9.18502C15.0176 9.12096 15.0143 9.12241 15.167 9.12241C15.3198 9.12241 16.8516 9.11037 17.1879 9.11037C17.5237 9.11037 17.8388 9.10652 17.8931 9.30397C17.9709 9.58764 17.6452 10.5595 16.8199 11.6142C15.4639 13.3451 15.3135 13.1833 16.439 14.1841Z" fill="url(#paint0_linear_402_2096)"/>
<defs>
<linearGradient id="paint0_linear_402_2096" x1="11.6484" y1="0.923077" x2="11.6484" y2="23.0769" gradientUnits="userSpaceOnUse">
<stop stop-color="#5181B8"/>
<stop offset="1" stop-color="#5181B8"/>
</linearGradient>
</defs>
</svg>
