<svg width="24" height="24" viewBox="0 0 24 24" fill="none" xmlns="http://www.w3.org/2000/svg">
<path d="M18.1857 23.1328L5.90983 23.1445C3.20914 23.147 0.997643 20.9341 0.994574 18.2264L0.982912 5.91869C0.980457 3.21099 3.18766 0.993764 5.88835 0.990687L18.1642 0.978995C20.8649 0.976533 23.0764 3.18946 23.0795 5.89715L23.0911 18.2048C23.0942 20.9131 20.8864 23.1304 18.1857 23.1328Z" fill="url(#paint0_radial_401_548)"/>
<path d="M18.1857 23.1328L5.90983 23.1445C3.20914 23.147 0.997643 20.9341 0.994574 18.2264L0.982912 5.91869C0.980457 3.21099 3.18766 0.993764 5.88835 0.990687L18.1642 0.978995C20.8649 0.976533 23.0764 3.18946 23.0795 5.89715L23.0911 18.2048C23.0942 20.9131 20.8864 23.1304 18.1857 23.1328Z" fill="url(#paint1_radial_401_548)"/>
<path d="M12.0373 16.3698C9.66865 16.3698 7.74072 14.4375 7.74072 12.0621C7.74072 9.68672 9.66865 7.75441 12.0373 7.75441C14.4059 7.75441 16.3338 9.68672 16.3338 12.0621C16.3338 14.4375 14.4059 16.3698 12.0373 16.3698ZM12.0373 8.98518C10.345 8.98518 8.96831 10.3655 8.96831 12.0621C8.96831 13.7587 10.345 15.139 12.0373 15.139C13.7295 15.139 15.1062 13.7587 15.1062 12.0621C15.1062 10.3655 13.7295 8.98518 12.0373 8.98518Z" fill="white"/>
<path d="M16.6404 8.36979C17.1489 8.36979 17.5611 7.95652 17.5611 7.44672C17.5611 6.93692 17.1489 6.52364 16.6404 6.52364C16.1319 6.52364 15.7197 6.93692 15.7197 7.44672C15.7197 7.95652 16.1319 8.36979 16.6404 8.36979Z" fill="white"/>
<path d="M15.7197 20.0621H8.35417C5.98554 20.0621 4.05762 18.1298 4.05762 15.7544V8.3698C4.05762 5.99441 5.98554 4.0621 8.35417 4.0621H15.7197C18.0883 4.0621 20.0162 5.99441 20.0162 8.3698V15.7544C20.0162 18.1298 18.0883 20.0621 15.7197 20.0621ZM8.35417 5.29287C6.66194 5.29287 5.2852 6.67318 5.2852 8.3698V15.7544C5.2852 17.451 6.66194 18.8313 8.35417 18.8313H15.7197C17.4119 18.8313 18.7887 17.451 18.7887 15.7544V8.3698C18.7887 6.67318 17.4119 5.29287 15.7197 5.29287H8.35417Z" fill="white"/>
<defs>
<radialGradient id="paint0_radial_401_548" cx="0" cy="0" r="1" gradientUnits="userSpaceOnUse" gradientTransform="translate(9.2016 23.1605) scale(27.5587 27.6302)">
<stop stop-color="#FFDD55"/>
<stop offset="0.328" stop-color="#FF543F"/>
<stop offset="0.348" stop-color="#FC5245"/>
<stop offset="0.504" stop-color="#E64771"/>
<stop offset="0.643" stop-color="#D53E91"/>
<stop offset="0.761" stop-color="#CC39A4"/>
<stop offset="0.841" stop-color="#C837AB"/>
</radialGradient>
<radialGradient id="paint1_radial_401_548" cx="0" cy="0" r="1" gradientUnits="userSpaceOnUse" gradientTransform="translate(4.54046 0.702257) scale(18.299 12.2242)">
<stop stop-color="#4168C9"/>
<stop offset="0.999" stop-color="#4168C9" stop-opacity="0"/>
</radialGradient>
</defs>
</svg>
