<svg width="23" height="24" viewBox="0 0 23 24" fill="none" xmlns="http://www.w3.org/2000/svg">
<path d="M22.993 12C22.993 18.1172 18.0462 23.0769 11.9448 23.0769C5.84335 23.0769 0.896484 18.1172 0.896484 12C0.896484 5.88277 5.84335 0.923077 11.9448 0.923077C18.0462 0.923077 22.993 5.88277 22.993 12Z" fill="url(#paint0_linear_402_2110)"/>
<path opacity="0.05" d="M4.2767 11.7047C8.78163 9.65828 14.0727 7.43792 14.8875 7.11669C16.6839 6.40832 17.4672 7.13219 17.3446 8.28696C17.1938 9.70204 16.479 13.8199 16.0392 16.7702C15.7818 18.4966 14.8493 19.0255 13.797 18.3559C12.9988 17.848 10.2544 16.0463 9.53236 15.4305C9.04016 15.0107 8.69711 14.5399 9.04624 14.0603C9.14844 13.9201 9.40973 13.6377 9.55501 13.497C10.2836 12.7892 10.1853 12.6369 9.30422 13.2688C9.19926 13.3441 8.5905 13.7867 8.34026 13.9539C7.72708 14.3638 7.16306 14.3859 6.20683 14.0603C5.42461 13.7939 4.67333 13.5884 4.19936 13.3829C3.54475 13.0988 3.29395 12.1511 4.2767 11.7047Z" fill="black"/>
<path opacity="0.07" d="M4.67266 11.7737C8.85554 9.89891 13.9996 7.75054 14.752 7.44648C16.5551 6.71651 17.2185 7.14961 17.0246 8.56026C16.8445 9.86623 16.2054 13.9071 15.7574 16.6159C15.4933 18.2105 14.7222 18.5616 13.7179 17.9103C13.0887 17.5038 10.5564 15.8312 9.94213 15.3443C9.46706 14.9683 8.97486 14.534 9.54992 13.9054C9.74216 13.6955 10.8039 12.6681 11.5977 11.9038C12.0579 11.4602 11.8938 11.2414 11.3386 11.6225C10.3205 12.322 8.65501 13.4291 8.35781 13.6302C7.79159 14.0123 7.25961 14.1043 6.33377 13.8124C5.60403 13.582 4.89915 13.3588 4.53179 13.2153C3.71091 12.8963 3.69986 12.2096 4.67266 11.7737Z" fill="black"/>
<path d="M5.06913 11.8435C8.9305 10.1404 13.9271 8.06405 14.617 7.7766C16.4262 7.02448 16.9814 7.16848 16.7046 8.83445C16.5057 10.0319 15.9323 13.9957 15.4749 16.4631C15.2037 17.9264 14.5949 18.0997 13.6382 17.4667C13.178 17.1621 10.8551 15.6218 10.3508 15.2602C9.89059 14.9306 9.25587 14.5341 10.0519 13.7532C10.3353 13.4751 12.1919 11.6973 13.6387 10.3138C13.8282 10.1321 13.5901 9.83359 13.3714 9.97925C11.4213 11.2758 8.71782 13.0752 8.37367 13.3095C7.85384 13.6634 7.35446 13.8257 6.45845 13.5676C5.78119 13.3727 5.11995 13.14 4.86253 13.0514C3.87094 12.7103 4.10627 12.2683 5.06913 11.8435Z" fill="white"/>
<defs>
<linearGradient id="paint0_linear_402_2110" x1="4.13252" y1="4.16751" x2="19.7975" y2="19.7919" gradientUnits="userSpaceOnUse">
<stop stop-color="#4DCAF7"/>
<stop offset="1" stop-color="#4AAFF3"/>
</linearGradient>
</defs>
</svg>
