<svg width="16" height="20" viewBox="0 0 16 20" fill="none" xmlns="http://www.w3.org/2000/svg">
<path d="M13.9321 2.71675C12.6273 1.46088 10.8216 0.769196 8.84758 0.769196C5.83222 0.769196 3.97764 2.00844 2.95282 3.04797C1.6898 4.32908 0.965576 6.03016 0.965576 7.7151C0.965576 9.83066 1.84818 11.4544 3.3262 12.0585C3.42543 12.0993 3.52528 12.1198 3.62317 12.1198C3.93498 12.1198 4.18204 11.9152 4.26764 11.5871C4.31755 11.3989 4.43314 10.9345 4.48342 10.7329C4.59101 10.3348 4.50407 10.1433 4.26942 9.86603C3.84194 9.35891 3.64287 8.75924 3.64287 7.9788C3.64287 5.66064 5.36454 3.19693 8.5555 3.19693C11.0874 3.19693 12.6602 4.6397 12.6602 6.96213C12.6602 8.42769 12.3453 9.78493 11.7734 10.784C11.376 11.4782 10.6772 12.3057 9.60438 12.3057C9.14047 12.3057 8.72373 12.1147 8.46079 11.7816C8.2124 11.4667 8.1305 11.0599 8.23043 10.636C8.34328 10.157 8.49719 9.65735 8.64613 9.17435C8.91778 8.29216 9.17457 7.45894 9.17457 6.79416C9.17457 5.65711 8.47734 4.89308 7.43975 4.89308C6.12112 4.89308 5.08805 6.23584 5.08805 7.95003C5.08805 8.79072 5.31089 9.41952 5.41178 9.66095C5.24566 10.3666 4.25839 14.5619 4.07112 15.353C3.96283 15.8148 3.31054 19.4623 4.39019 19.7531C5.60323 20.0799 6.68754 16.5275 6.79791 16.126C6.88736 15.7996 7.20032 14.5651 7.3921 13.8062C7.97771 14.3718 8.92059 14.7541 9.83804 14.7541C11.5676 14.7541 13.123 13.9738 14.2179 12.557C15.2797 11.1829 15.8645 9.26755 15.8645 7.16421C15.8644 5.51988 15.16 3.89879 13.9321 2.71675Z" fill="#D7143A"/>
</svg>
