<svg width="23" height="17" viewBox="0 0 23 17" fill="none" xmlns="http://www.w3.org/2000/svg">
<path d="M22.5263 2.66C22.261 1.62 21.4843 0.8 20.4991 0.52C18.6993 0 11.5 0 11.5 0C11.5 0 4.30064 0 2.50081 0.5C1.53459 0.78 0.738877 1.62 0.473639 2.66C0 4.56 0 8.5 0 8.5C0 8.5 0 12.46 0.473639 14.34C0.738877 15.38 1.51564 16.2 2.50081 16.48C4.31959 17 11.5 17 11.5 17C11.5 17 18.6993 17 20.4991 16.5C21.4843 16.22 22.261 15.4 22.5263 14.36C22.9999 12.46 22.9999 8.52 22.9999 8.52C22.9999 8.52 23.0188 4.56 22.5263 2.66V2.66Z" fill="#FF0000"/>
<path d="M9 5V12L16 8.5L9 5Z" fill="white"/>
</svg>
