<svg width="18" height="18" viewBox="0 0 18 18" fill="none" xmlns="http://www.w3.org/2000/svg">
<path d="M10.5541 10.6615C9.20371 12.0585 9.1055 13.8 8.98888 17.6154C12.5366 17.6154 14.9856 17.6031 16.2501 16.3723C17.4776 15.1046 17.4899 12.5323 17.4899 9.09231C13.6844 9.21538 11.9474 9.30769 10.5541 10.6615V10.6615ZM0.303711 9.09231C0.303711 12.5323 0.315987 15.1046 1.54357 16.3723C2.80799 17.6031 5.25702 17.6154 8.80475 17.6154C8.68199 13.8 8.58992 12.0585 7.23957 10.6615C5.84626 9.30769 4.10923 9.20923 0.303711 9.09231V9.09231ZM8.80475 0.384613C5.26316 0.384613 2.80799 0.396921 1.54357 1.62769C0.315987 2.89538 0.303711 5.46769 0.303711 8.90769C4.10923 8.78461 5.84626 8.69231 7.23957 7.33846C8.58992 5.94154 8.68812 4.2 8.80475 0.384613V0.384613ZM10.5541 7.33846C9.20371 5.94154 9.1055 4.2 8.98888 0.384613C12.5366 0.384613 14.9856 0.396921 16.2501 1.62769C17.4776 2.89538 17.4899 5.46769 17.4899 8.90769C13.6844 8.78461 11.9474 8.69231 10.5541 7.33846" fill="#2C3036"/>
<path d="M17.4899 9.09231V8.90769C13.6844 8.78461 11.9474 8.69231 10.5541 7.33846C9.20371 5.94154 9.1055 4.2 8.98888 0.384613H8.80475C8.68199 4.2 8.58992 5.94154 7.23957 7.33846C5.84626 8.69231 4.10923 8.79077 0.303711 8.90769V9.09231C4.10923 9.21538 5.84626 9.30769 7.23957 10.6615C8.58992 12.0585 8.68812 13.8 8.80475 17.6154H8.98888C9.11164 13.8 9.20371 12.0585 10.5541 10.6615C11.9474 9.30769 13.6844 9.20923 17.4899 9.09231" fill="white"/>
</svg>
