<svg width="41" height="33" viewBox="0 0 41 33" fill="none" xmlns="http://www.w3.org/2000/svg">
<path opacity="0.3" d="M39.6204 12.1099L32.1631 11.0445L28.8266 4.42153C28.6987 4.16377 28.4321 4 28.1397 4C27.8472 4 27.5807 4.16377 27.4528 4.42153L24.1162 11.0445L16.659 12.1099C16.3718 12.1483 16.1316 12.343 16.0389 12.6124C15.9462 12.8839 16.0222 13.1836 16.2336 13.3813L21.6306 18.5472L20.3543 25.8289C20.3072 26.1122 20.4259 26.3976 20.6618 26.5674C20.8982 26.7379 21.2135 26.7594 21.4718 26.6228L28.1348 23.1854L34.7977 26.6228C34.9076 26.6818 35.0309 26.713 35.1565 26.7132C35.3187 26.7125 35.4766 26.6616 35.6075 26.5674C35.8434 26.3976 35.9622 26.1122 35.915 25.8289L34.649 18.5472L40.046 13.3914C40.2574 13.1937 40.3334 12.894 40.2407 12.6223C40.1513 12.3491 39.9105 12.1501 39.6206 12.1099L39.6204 12.1099ZM33.2649 17.7481C33.086 17.921 33.0038 18.1685 33.0446 18.4114L34.1259 24.5773L28.488 21.6676C28.2629 21.5541 27.9956 21.5541 27.7705 21.6676L22.1326 24.5773L23.214 18.4114H23.2142C23.2602 18.1716 23.1858 17.9249 23.0142 17.7481L18.4014 13.3813L24.7158 12.4817C24.9661 12.4462 25.1828 12.2921 25.2949 12.0696L28.1395 6.45656L30.9635 12.0698V12.0696C31.0756 12.2921 31.2923 12.4462 31.5428 12.4817L37.8778 13.3813L33.2649 17.7481Z" fill="#5F5F5F"/>
<path d="M0 0.582031L20.7552 10.3722L31.3285 11.9386L23.888 19.7708L26.035 32.6938L0 31.1274V0.582031Z" fill="#F2F2F2"/>
<path opacity="0.9" d="M29.9343 10.4278L20.533 9.05791L16.3267 0.542013C16.1654 0.210571 15.8294 0 15.4607 0C15.092 0 14.756 0.210579 14.5947 0.542013L10.3883 9.05791L0.987035 10.4278C0.625021 10.4772 0.322135 10.7275 0.205303 11.074C0.088479 11.423 0.184246 11.8084 0.450782 12.0626L7.25471 18.7049L5.64569 28.0678C5.58626 28.4321 5.73598 28.7991 6.03338 29.0174C6.33136 29.2366 6.72886 29.2643 7.05452 29.0887L15.4545 24.6688L23.8544 29.0887C23.9929 29.1645 24.1484 29.2046 24.3068 29.2049C24.5113 29.204 24.7103 29.1386 24.8753 29.0174C25.1727 28.799 25.3224 28.4321 25.263 28.0678L23.667 18.7049L30.4709 12.0755C30.7374 11.8214 30.8332 11.436 30.7164 11.0867C30.6036 10.7353 30.3001 10.4795 29.9346 10.4278L29.9343 10.4278ZM21.922 17.6774C21.6965 17.8998 21.5929 18.218 21.6442 18.5304L23.0075 26.4585L15.8999 22.7172C15.616 22.5712 15.2791 22.5712 14.9952 22.7172L7.88758 26.4585L9.25085 18.5304H9.25114C9.30912 18.222 9.21537 17.9047 8.99902 17.6774L3.18366 12.0626L11.1442 10.9058C11.4598 10.8603 11.733 10.6621 11.8743 10.3759L15.4604 3.15868L19.0206 10.3762V10.3759C19.162 10.6621 19.4351 10.8603 19.751 10.9058L27.7374 12.0626L21.922 17.6774Z" fill="#747474"/>
</svg>
