<svg width="74" height="74" viewBox="0 0 74 74" fill="none" xmlns="http://www.w3.org/2000/svg">
<path d="M73.3833 37C73.3833 57.0939 57.0939 73.3833 37 73.3833C16.906 73.3833 0.616656 57.0939 0.61666 37C0.616663 16.906 16.906 0.616669 37 0.616673C57.0939 0.616676 73.3833 16.906 73.3833 37Z" fill="#CAB9A5" stroke="#DBD2C7" stroke-width="1.23333"/>
<path d="M44.9997 37.6426C44.9952 38.1936 44.7712 38.7216 44.3751 39.1143L33.9487 49.2967C33.5417 49.6959 32.9893 49.9208 32.4126 49.922C31.8359 49.9232 31.2823 49.7006 30.8737 49.3035C30.4649 48.906 30.2346 48.3665 30.2334 47.8033C30.2322 47.2401 30.4601 46.6995 30.8668 46.3005L39.7587 37.6167L30.8668 28.9329V28.9326C30.3189 28.3952 30.1061 27.6127 30.3089 26.8806C30.5116 26.1481 31.0989 25.5769 31.8495 25.3822C32.6004 25.1875 33.4004 25.3988 33.9487 25.9365L44.3751 36.1189C44.7845 36.5246 45.0097 37.0742 44.9997 37.6436L44.9997 37.6426Z" fill="#8A7354"/>
</svg>
