<svg width="74" height="74" viewBox="0 0 74 74" fill="none" xmlns="http://www.w3.org/2000/svg">
<path d="M0.616683 37C0.616686 57.0939 16.9061 73.3833 37 73.3833C57.094 73.3833 73.3833 57.0939 73.3833 37C73.3833 16.906 57.0939 0.616669 37 0.616673C16.906 0.616676 0.616679 16.906 0.616683 37Z" fill="#CAB9A5" stroke="#DBD2C7" stroke-width="1.23333"/>
<path d="M29.0003 37.6426C29.0048 38.1936 29.2288 38.7216 29.6248 39.1143L40.0513 49.2967C40.4583 49.6959 41.0107 49.9208 41.5874 49.922C42.1641 49.9232 42.7177 49.7006 43.1262 49.3035C43.535 48.906 43.7653 48.3665 43.7666 47.8033C43.7678 47.2401 43.5399 46.6995 43.1332 46.3005L34.2412 37.6167L43.1332 28.9329V28.9326C43.6811 28.3952 43.8938 27.6127 43.6911 26.8806C43.4884 26.1481 42.901 25.5769 42.1505 25.3822C41.3995 25.1875 40.5995 25.3988 40.0513 25.9365L29.6249 36.1189C29.2155 36.5246 28.9903 37.0742 29.0003 37.6436L29.0003 37.6426Z" fill="#8A7354"/>
</svg>
