<svg width="23" height="23" viewBox="0 0 23 23" fill="none" xmlns="http://www.w3.org/2000/svg">
<circle cx="11.4942" cy="11.5086" r="10.6815" fill="black" stroke="white" stroke-width="1.52592"/>
<g clip-path="url(#clip0_190_200)">
<path d="M6.44483 10.6987C6.25613 10.189 6.11948 9.66846 6.16069 9.11536C6.18672 8.77482 6.31469 8.48417 6.56413 8.24558C6.83526 7.98964 7.0912 7.72068 7.35799 7.4604C7.70503 7.11769 8.14101 7.11986 8.48805 7.4604C8.70278 7.67079 8.91535 7.88553 9.12791 8.10026C9.33397 8.30631 9.54219 8.51237 9.74825 8.7206C10.1105 9.08716 10.1126 9.51446 9.75042 9.87885C9.49014 10.1391 9.23202 10.4016 8.9674 10.6575C8.89799 10.7248 8.89149 10.7812 8.92836 10.8658C9.10188 11.2822 9.35349 11.6531 9.63546 12.0002C10.2037 12.6986 10.8458 13.3189 11.6114 13.7983C11.7763 13.9002 11.9563 13.9761 12.1277 14.0694C12.2166 14.1171 12.2752 14.1019 12.3467 14.0282C12.6048 13.7614 12.8695 13.4989 13.1341 13.2365C13.4811 12.8938 13.9149 12.8916 14.262 13.2365C14.6871 13.6573 15.1101 14.0802 15.5309 14.5054C15.8844 14.8611 15.8822 15.2971 15.5265 15.6549C15.2858 15.8979 15.032 16.1278 14.8064 16.3816C14.4767 16.7503 14.0603 16.8718 13.5874 16.8457C12.8977 16.8089 12.2621 16.5789 11.6483 16.2818C10.2862 15.6202 9.12357 14.7027 8.14968 13.5445C7.42957 12.6856 6.83526 11.7529 6.44483 10.6987ZM16.8344 11.4752C16.8344 8.54925 14.4529 6.16766 11.5268 6.16766V7.17843C13.8954 7.17843 15.8237 9.10668 15.8237 11.4752H16.8344ZM13.928 11.4752H14.9387C14.9387 9.59471 13.4074 8.06339 11.5268 8.06339V9.07415C12.1689 9.07415 12.7719 9.32358 13.2252 9.77691C13.6785 10.2302 13.928 10.8332 13.928 11.4752Z" fill="white"/>
</g>
<defs>
<clipPath id="clip0_190_200">
<rect width="10.6815" height="10.6815" fill="white" transform="translate(6.15283 6.16809)"/>
</clipPath>
</defs>
</svg>
