<svg width="25" height="25" viewBox="0 0 25 25" fill="none" xmlns="http://www.w3.org/2000/svg">
<g clip-path="url(#clip0_190_190)">
<path d="M12.7319 23.2152C18.7712 23.2152 23.6677 18.3187 23.6677 12.2794C23.6677 6.24007 18.7712 1.34361 12.7319 1.34361C6.69259 1.34361 1.79612 6.24007 1.79612 12.2794C1.79612 18.3187 6.69259 23.2152 12.7319 23.2152Z" fill="url(#paint0_linear_190_190)" stroke="white" stroke-width="1.52592"/>
<path opacity="0.05" d="M5.67138 12.0082C9.81934 10.1287 14.6911 8.0896 15.4414 7.79459C17.0955 7.14404 17.8167 7.80883 17.7038 8.86935C17.5649 10.1689 16.9067 13.9507 16.5019 16.6602C16.2648 18.2456 15.4063 18.7314 14.4373 18.1164C13.7023 17.65 11.1754 15.9954 10.5106 15.4298C10.0574 15.0442 9.74152 14.6119 10.063 14.1714C10.1571 14.0427 10.3977 13.7833 10.5314 13.6541C11.2023 13.0041 11.1118 12.8642 10.3005 13.4446C10.2039 13.5137 9.64336 13.9202 9.41294 14.0738C8.84835 14.4502 8.32903 14.4705 7.44857 14.1714C6.72833 13.9268 6.03658 13.7381 5.60017 13.5494C4.99743 13.2884 4.76651 12.4181 5.67138 12.0082Z" fill="black"/>
<path opacity="0.07" d="M6.03656 12.0714C9.88799 10.3496 14.6245 8.37659 15.3172 8.09734C16.9774 7.42695 17.5883 7.82471 17.4098 9.12022C17.2439 10.3196 16.6555 14.0306 16.2429 16.5184C15.9998 17.9828 15.2898 18.3053 14.365 17.7071C13.7857 17.3337 11.4541 15.7977 10.8885 15.3506C10.4511 15.0052 9.99785 14.6064 10.5273 14.0291C10.7044 13.8363 11.682 12.8928 12.4129 12.1909C12.8366 11.7835 12.6855 11.5825 12.1743 11.9325C11.2369 12.5749 9.70335 13.5917 9.4297 13.7763C8.90835 14.1273 8.41852 14.2117 7.56604 13.9437C6.89413 13.7321 6.2451 13.5271 5.90686 13.3953C5.15102 13.1024 5.14084 12.4717 6.03656 12.0714Z" fill="black"/>
<path d="M6.40106 12.1356C9.95646 10.5715 14.5571 8.66463 15.1924 8.40065C16.8582 7.70991 17.3694 7.84216 17.1146 9.37215C16.9314 10.4718 16.4035 14.1122 15.9823 16.3782C15.7326 17.722 15.1721 17.8812 14.2911 17.2998C13.8674 17.0201 11.7286 15.6055 11.2642 15.2734C10.8405 14.9708 10.256 14.6066 10.989 13.8894C11.2499 13.6341 12.9595 12.0013 14.2916 10.7307C14.4661 10.5639 14.2468 10.2897 14.0454 10.4235C12.2499 11.6142 9.76063 13.2668 9.44375 13.482C8.96511 13.807 8.5053 13.956 7.68029 13.719C7.0567 13.54 6.44785 13.3263 6.21083 13.2449C5.29782 12.9316 5.5145 12.5257 6.40106 12.1356Z" fill="white"/>
</g>
<defs>
<linearGradient id="paint0_linear_190_190" x1="5.5387" y1="5.08619" x2="19.9251" y2="19.4726" gradientUnits="userSpaceOnUse">
<stop stop-color="#4DCAF7"/>
<stop offset="1" stop-color="#4AAFF3"/>
</linearGradient>
<clipPath id="clip0_190_190">
<rect width="24.4148" height="24.4148" fill="white" transform="translate(0.524902 0.0722656)"/>
</clipPath>
</defs>
</svg>
