<svg width="38" height="44" viewBox="0 0 38 44" fill="none" xmlns="http://www.w3.org/2000/svg">
<path d="M37.0023 0.579344C36.9311 0.670358 36.4961 0.879308 36.0256 1.03576C23.3876 5.2782 13.5948 14.7437 8.47759 27.666C7.20629 30.8935 6.19598 34.3135 5.57843 37.5486C5.24965 39.2979 4.93813 41.3621 5.00014 41.5002C5.02483 41.5533 5.69285 41.0267 6.49247 40.3187C7.2921 39.6106 8.03075 38.9822 8.12548 38.9225C8.35717 38.7792 8.82369 39.1456 8.70651 39.3916C8.58873 39.6267 4.41141 43.2747 4.24857 43.2836C4.05316 43.2943 3.99353 43.1996 2.32193 40.5146C1.15152 38.6297 0.908216 38.1639 0.986139 37.9963C1.0544 37.851 1.1817 37.7896 1.36744 37.8012C1.5972 37.8213 1.81954 38.1031 2.84837 39.7889C3.51701 40.8629 4.07663 41.736 4.08689 41.7245C4.09775 41.7239 4.15842 41.2415 4.22518 40.6716C4.41521 38.9734 5.05567 35.7588 5.62654 33.6587C9.43532 19.5123 17.8595 8.71716 29.7612 2.762C32.0182 1.62563 35.9503 0.0599013 36.6342 0.0224138C36.9599 0.00456268 37.1738 0.330394 37.0023 0.579344Z" fill="#BBBBBB"/>
</svg>
