<svg width="28" height="29" viewBox="0 0 28 29" fill="none" xmlns="http://www.w3.org/2000/svg">
<path fill-rule="evenodd" clip-rule="evenodd" d="M3.39404 25.1253L4.86995 19.7372C3.95942 18.1605 3.4806 16.3712 3.48115 14.5386C3.48389 8.80538 8.14937 4.14099 13.8832 4.14099C16.6657 4.14209 19.2767 5.22519 21.2408 7.19032C23.2043 9.156 24.2857 11.7681 24.2846 14.5468C24.2824 20.2801 19.6159 24.945 13.8832 24.945C13.8826 24.945 13.8832 24.945 13.8832 24.945H13.8788C12.1383 24.9445 10.4273 24.5078 8.90814 23.6789L3.39404 25.1253Z" fill="white"/>
<path fill-rule="evenodd" clip-rule="evenodd" d="M3.39429 25.3996C3.32197 25.3996 3.25185 25.3711 3.1998 25.3185C3.13132 25.2489 3.10448 25.1475 3.13023 25.0539L4.576 19.7748C3.67972 18.1827 3.20693 16.3748 3.20802 14.5395C3.21021 8.65454 7.99896 3.86743 13.8834 3.86743C16.7377 3.86853 19.4194 4.98011 21.435 6.99729C23.4505 9.01502 24.5599 11.6962 24.5588 14.5472C24.5566 20.4317 19.7673 25.2193 13.8834 25.2193C12.1363 25.2188 10.4079 24.7876 8.87388 23.9719L3.46387 25.3902C3.44086 25.3968 3.41785 25.3996 3.39429 25.3996Z" fill="white"/>
<path fill-rule="evenodd" clip-rule="evenodd" d="M20.2724 8.15588C18.5672 6.44952 16.3006 5.50936 13.8881 5.50879C8.90753 5.50879 4.85678 9.55782 4.85449 14.535C4.85392 16.2408 5.33115 17.9014 6.23526 19.3394L6.45042 19.681L5.53772 23.0119L8.9556 22.1158L9.28577 22.3115C10.6717 23.1343 12.2613 23.5692 13.8818 23.5698H13.8853C18.8625 23.5698 22.9132 19.5202 22.9149 14.5424C22.9155 12.1305 21.9776 9.86225 20.2724 8.15588Z" fill="#40C351"/>
<path fill-rule="evenodd" clip-rule="evenodd" d="M11.1699 9.99457C10.9667 9.54252 10.7527 9.53336 10.5587 9.52535C10.4002 9.51848 10.2194 9.51905 10.0386 9.51905C9.85775 9.51905 9.56363 9.58715 9.31472 9.85895C9.0658 10.1308 8.36426 10.7871 8.36426 12.1227C8.36426 13.4582 9.33703 14.7492 9.47265 14.93C9.60827 15.1108 11.3507 17.9393 14.1099 19.0276C16.4028 19.9318 16.8697 19.7521 17.3676 19.7069C17.8654 19.6617 18.9738 19.0505 19.1998 18.4165C19.4259 17.7825 19.4259 17.2395 19.3583 17.1262C19.2902 17.0129 19.1094 16.9453 18.8382 16.8092C18.567 16.673 17.232 16.0166 16.983 15.9262C16.7341 15.8358 16.5533 15.7906 16.3719 16.0624C16.1911 16.3336 15.6709 16.9453 15.5124 17.1262C15.3539 17.3076 15.1954 17.3304 14.9242 17.1943C14.653 17.0581 13.7786 16.772 12.7412 15.8472C11.9343 15.128 11.3896 14.2393 11.2311 13.9675C11.0726 13.6963 11.2139 13.5492 11.3501 13.4136C11.472 13.2917 11.6213 13.0966 11.7575 12.9381C11.8931 12.7796 11.9383 12.6663 12.0288 12.4854C12.1192 12.3041 12.074 12.1455 12.0059 12.0099C11.9389 11.8737 11.4113 10.5313 11.1699 9.99457Z" fill="white"/>
</svg>
