<svg width="16" height="25" viewBox="0 0 16 25" fill="none" xmlns="http://www.w3.org/2000/svg">
<path d="M7.50803 0C3.3918 0 0.00805664 3.20974 0.00805664 7.78844C0.00805664 9.49777 0.660801 11.6119 1.35115 12.9534L6.99415 23.9149C7.09275 24.1079 7.29135 24.2294 7.50806 24.2294C7.72477 24.2294 7.92336 24.1079 8.02196 23.9149L13.665 12.9534C14.3553 11.6117 15.0081 9.49757 15.0081 7.78844C15.0081 3.20979 11.6243 0 7.50809 0H7.50803ZM7.50803 4.03835C9.41975 4.03835 10.9695 5.5881 10.9695 7.49982C10.9695 9.41154 9.41975 10.9613 7.50803 10.9613C5.59631 10.9613 4.04655 9.41154 4.04655 7.49982C4.04655 5.5881 5.59631 4.03835 7.50803 4.03835Z" fill="#BE5252"/>
</svg>
